<svg id="Layer_1" data-name="Layer 1" xmlns="http://www.w3.org/2000/svg" viewBox="0 0 750 420"><defs><style>.cls-1{fill:#fff8f6;}.cls-2{fill:#cbd6e2;}.cls-3{fill:#eaf0f6;}.cls-4{fill:#263238;}.cls-5{fill:#ff7a59;}.cls-6{fill:#33475b;}.cls-7{fill:#455a64;}.cls-8{fill:#f6f6f6;}.cls-9{fill:#ff725e;}.cls-10{fill:#ffba99;}.cls-11{fill:#b38476;}.cls-12{fill:#e7956e;}.cls-13{fill:#f1f4f6;}.cls-14{fill:#a66550;}.cls-15{fill:#fff;}</style></defs><rect class="cls-1" width="750" height="420"/><g id="freepik--background-complete--inject-4"><rect class="cls-2" x="186.15" y="214.19" width="3.16" height="150.94"/><rect class="cls-2" x="189.31" y="214.62" width="3.16" height="150.51"/><rect class="cls-2" x="380.93" y="214.19" width="3.16" height="150.94"/><rect class="cls-2" x="384.09" y="214.62" width="3.16" height="150.51"/><rect class="cls-2" x="172.5" y="205.42" width="240.14" height="12.38"/><rect class="cls-3" x="276.78" y="217.8" width="105.72" height="20.49"/><path class="cls-2" d="M334.36,226.64a2.36,2.36,0,1,1-2.36-2.36A2.36,2.36,0,0,1,334.36,226.64Z"/><path class="cls-3" d="M155.46,279.05H197a5.26,5.26,0,0,0,5.25-5.26V261a8.93,8.93,0,0,0-8.91-8.93H155.15Z"/><path class="cls-2" d="M196.29,287.09H114.64a4,4,0,0,1-4-4h0a4,4,0,0,1,4-4h81.65a4,4,0,0,1,4,4h0A4,4,0,0,1,196.29,287.09Z"/><path class="cls-2" d="M98,171.84l44.92-.79,28.51,107.76-60.81.61L87.69,185a10.63,10.63,0,0,1,7.82-12.81A11.61,11.61,0,0,1,98,171.84Z"/><polygon class="cls-2" points="120.38 287.09 106.94 365.2 110.61 365.2 128.28 287.09 120.38 287.09"/><polygon class="cls-2" points="152.06 287.09 137.78 365.2 141.46 365.2 159.97 287.09 152.06 287.09"/><polygon class="cls-2" points="187.1 287.09 203.04 365.2 199.36 365.2 179.2 287.09 187.1 287.09"/><path class="cls-3" d="M137.77,171.05,160,278.92h17.05L159.23,183.6a15.34,15.34,0,0,0-15.1-12.55Z"/></g><g id="freepik--Floor--inject-4"><path class="cls-4" d="M656.62,365c0,.14-131.69.23-294.08.23S68.42,365.15,68.42,365s131.65-.22,294.16-.22S656.62,364.89,656.62,365Z"/></g><g id="freepik--Plant--inject-4"><path class="cls-5" d="M622.13,295.38c8,2.78,18.39.3,25.21-4.68s11.72-12.12,16.08-19.36c1.85-3.09,3.66-6.31,4.25-9.87s-.27-7.55-3-9.88c-4.29-3.6-10.86-1.75-15.76,1a54.31,54.31,0,0,0-26.78,42.8"/><path class="cls-5" d="M630.7,314.47c4.79,6.32,13,9.13,20.94,9.5s15.76-1.82,23.14-4.67c2.69-1,5.63-2.44,6.55-5.17a6.53,6.53,0,0,0-1.4-6.12,13.67,13.67,0,0,0-5.35-3.65c-7.29-3.1-15.63-3.24-23.3-1.26s-14.36,6.43-20.58,11.33"/><path class="cls-5" d="M622,261.22c6.6.13,11.6-5.65,14.59-11.54A42.74,42.74,0,0,0,640.54,223c-.61-3.38-1.88-7-4.9-8.64s-7.06-.56-9.63,1.76-4,5.69-5,9c-3.54,11.47-2.78,24.65,1,36"/><path class="cls-5" d="M600.34,297.74c11.25-19.16,13.13-42.6,6.48-63.8-1.08-3.44-3.12-7.38-6.71-7.6-4-.26-6.48,4.19-7.58,8-3.86,13.46-3,27.76-2.19,41.74.53,8.61,3.51,16,10,21.64"/><path class="cls-5" d="M588.64,305.61a46.08,46.08,0,0,0-27.32-29c-3-1.12-6.79-1.75-9,.53s-1.51,6-.1,8.75c2.25,4.53,5.94,8.16,9.63,11.65,3.33,3.18,6.8,6.36,11,8.2s12,2.31,15.82-.2"/><path class="cls-4" d="M658.42,256.4l-.21.18-.6.46-2.35,1.75c-.53.38-1.1.8-1.76,1.26s-1.25,1-2,1.6c-1.39,1.16-3,2.42-4.69,4-.88.76-1.75,1.56-2.63,2.4s-1.8,1.8-2.75,2.75c-2,1.86-3.82,4-5.84,6.27a124,124,0,0,0-20.57,33.27c-1.1,2.81-2.22,5.47-3,8-.42,1.28-.88,2.5-1.22,3.7l-1,3.45c-.67,2.19-1.05,4.22-1.47,6-.19.87-.4,1.69-.55,2.46s-.26,1.47-.37,2.1c-.22,1.22-.4,2.19-.52,2.89l-.15.76a1.17,1.17,0,0,1-.07.25,1.13,1.13,0,0,1,0-.26,7.29,7.29,0,0,1,.1-.76c.1-.71.24-1.68.43-2.92.09-.64.2-1.34.32-2.11s.33-1.59.51-2.48c.39-1.75.75-3.82,1.4-6l.94-3.5c.33-1.2.79-2.43,1.19-3.71.79-2.59,1.88-5.26,3-8.08a134.16,134.16,0,0,1,9-17.55,132.22,132.22,0,0,1,11.69-15.86c2-2.25,3.93-4.42,5.89-6.27,1-.94,1.86-1.89,2.79-2.73l2.68-2.4c1.68-1.56,3.35-2.79,4.77-3.94.71-.56,1.36-1.1,2-1.56l1.75-1.23,2.42-1.69.64-.43C658.33,256.44,658.41,256.39,658.42,256.4Z"/><path class="cls-4" d="M673.32,309.49a4,4,0,0,1-.77-.12c-.51-.09-1.24-.29-2.19-.45a60.49,60.49,0,0,0-61.47,25.58c-.56.79-.94,1.44-1.23,1.86a3.67,3.67,0,0,1-.45.64,5.58,5.58,0,0,1,.35-.69c.27-.44.62-1.11,1.16-1.92a54.85,54.85,0,0,1,4.92-6.62,58.56,58.56,0,0,1,48.59-20.22,55.88,55.88,0,0,1,8.16,1.17c1,.2,1.68.42,2.18.55A3.81,3.81,0,0,1,673.32,309.49Z"/><path class="cls-4" d="M631.75,222v.3a8.59,8.59,0,0,1-.19.87c-.17.8-.43,1.9-.73,3.3-.65,2.86-1.64,7-2.88,12.09-2.49,10.2-6.09,24.24-9.84,39.8-1.87,7.79-3.56,15.22-5,22s-2.63,12.9-3.56,18.07c-.48,2.58-.87,4.92-1.19,7s-.63,3.83-.87,5.26-.4,2.53-.53,3.33c-.06.36-.1.64-.15.88a.15.15,0,1,1-.06,0c0-.23.06-.52.1-.88l.42-3.35c.17-1.43.43-3.23.75-5.25s.66-4.38,1.12-7c.88-5.18,2-11.32,3.44-18.11s3.11-14.24,5-22c3.75-15.57,7.41-29.59,10-39.77,1.27-5.05,2.31-9.16,3-12.05.35-1.39.63-2.48.88-3.26.09-.35.17-.63.23-.88A1.7,1.7,0,0,1,631.75,222Z"/><path class="cls-4" d="M605.91,333.66a.61.61,0,0,0-.08-.23,4.48,4.48,0,0,1-.16-.69c-.13-.66-.31-1.54-.55-2.67-.47-2.31-1.11-5.67-1.83-9.84-1.44-8.34-3.15-19.91-4.2-32.78-.52-6.45-.8-12.59-.92-18.19s0-10.63.13-14.88c.05-2.12.19-4,.28-5.71s.2-3.12.32-4.3.18-2.05.24-2.7a5.43,5.43,0,0,1,.08-.71,1,1,0,0,1,0-.24,1,1,0,0,1,0,.25v.71c0,.66-.09,1.56-.16,2.71s-.15,2.63-.22,4.3-.17,3.59-.2,5.7c-.13,4.22-.14,9.25,0,14.84s.45,11.72,1,18.15c1,12.85,2.7,24.42,4,32.76.68,4.17,1.25,7.54,1.67,9.87.19,1.13.35,2,.45,2.69a4,4,0,0,0,.11.7A.75.75,0,0,1,605.91,333.66Z"/><path class="cls-4" d="M606.74,336.09a3.5,3.5,0,0,1-.3-.65c-.18-.49-.42-1.13-.73-1.93l-.54-1.39c-.21-.51-.46-1-.71-1.62s-.54-1.21-.88-1.87-.66-1.32-1-2l-1.11-2.23L600.09,322c-.88-1.65-2.08-3.3-3.21-5.08a118.07,118.07,0,0,0-8.47-10.83,133.59,133.59,0,0,0-9.73-9.75c-1.62-1.36-3.1-2.72-4.6-3.87l-2.12-1.7-2-1.48c-1.27-1-2.47-1.76-3.5-2.49s-2-1.33-2.73-1.8l-1.75-1.1a4,4,0,0,1-.6-.42,4.36,4.36,0,0,1,.65.32l1.8,1a29.61,29.61,0,0,1,2.78,1.75c1,.74,2.3,1.48,3.6,2.43l2.05,1.47,2.13,1.65c1.51,1.13,3,2.49,4.64,3.85a123.51,123.51,0,0,1,9.8,9.75,113.55,113.55,0,0,1,8.49,10.92c1.13,1.8,2.33,3.5,3.2,5.13l1.35,2.38,1.13,2.26c.34.72.71,1.4,1,2.06l.79,1.89.69,1.64.49,1.42c.26.81.48,1.46.65,2A4.3,4.3,0,0,1,606.74,336.09Z"/><path class="cls-4" d="M654.24,278.61a35.21,35.21,0,0,1-3.55.21A63.64,63.64,0,0,0,633.91,282c-2.08.68-3.35,1.18-3.39,1.11a3.21,3.21,0,0,1,.88-.46c.55-.26,1.37-.61,2.4-1a50.79,50.79,0,0,1,16.89-3.2c1.11,0,2,0,2.63.05A3.18,3.18,0,0,1,654.24,278.61Z"/><path class="cls-4" d="M662.73,320.09a32.35,32.35,0,0,0-4.63-7,34.57,34.57,0,0,0-6.63-5.14,8.37,8.37,0,0,1,2.29,1,20.71,20.71,0,0,1,4.73,3.77,20.08,20.08,0,0,1,3.4,5A8,8,0,0,1,662.73,320.09Z"/><path class="cls-4" d="M633.76,237.58c.11.11-2,2.17-4.23,4.95s-3.87,5.26-4,5.13a31.82,31.82,0,0,1,8.23-10.08Z"/><path class="cls-4" d="M627,225.84a20.49,20.49,0,0,1,1,4.44,20.23,20.23,0,0,1,.51,4.53,19.81,19.81,0,0,1-1-4.45A20.19,20.19,0,0,1,627,225.84Z"/><path class="cls-4" d="M605.92,262.69a55,55,0,0,1-3.29,6.93,56,56,0,0,1-3.77,6.69,55,55,0,0,1,3.29-6.93A56,56,0,0,1,605.92,262.69Z"/><path class="cls-4" d="M593.39,250.18a31.07,31.07,0,0,1,2.79,5,30,30,0,0,1,2.31,5.26,33.26,33.26,0,0,1-2.79-5A31,31,0,0,1,593.39,250.18Z"/><path class="cls-4" d="M575,293c0,.16-2.27-.28-5.05-.47s-5.06-.09-5.08-.24A14.4,14.4,0,0,1,570,292,14.61,14.61,0,0,1,575,293Z"/><path class="cls-6" d="M587.55,330.8l6.26,32.95a4.64,4.64,0,0,0,4.54,3.76h18.51a4.63,4.63,0,0,0,4.56-3.87l5.45-32.84Z"/><polygon class="cls-7" points="589.58 341.5 624.99 341.5 626.87 330.8 587.55 330.8 589.58 341.5"/><polygon class="cls-8" points="589.58 341.5 590.33 345.41 624.45 345.41 624.99 341.5 589.58 341.5"/></g><g id="freepik--character-4--inject-4"><path class="cls-9" d="M485.2,89.45c.14,3.43.19,7.18-1.93,9.88-1.16,1.48-2.89,2.52-3.74,4.2-1.08,2.13-.46,4.73-1,7.07-.5,2.08-1.89,3.82-2.72,5.79a10.28,10.28,0,0,0,.49,9.18,8.51,8.51,0,0,0,8,4.12,11.59,11.59,0,0,0,6.82-4,22.73,22.73,0,0,0-1.37-32.1l-.53-.47"/><path class="cls-9" d="M526.69,70.61A13.62,13.62,0,0,0,529.38,80c2,2.62,4.5,5.18,4.71,8.46.17,2.44-1,4.81-.87,7.25.22,5.86,7.09,9.46,8.29,15.2A8.38,8.38,0,0,1,530,120.28c-4.19-1.8-6.23-6.75-6.22-11.3s1.59-8.94,2.63-13.37c1.93-7.93.88-14.79-.45-22.85"/><path class="cls-9" d="M531,97.77c-1.17-2-2.55-4.08-2.38-6.39.19-2.62,2.39-5,1.85-7.55-.33-1.61-1.64-2.79-2.47-4.2-1.48-2.55-1.3-5.69-1.34-8.65s-.51-6.22-2.8-8.1-5.25-1.75-7.88-2.62c-1.35-.48-2.62-1.25-4-1.75-2.89-1-6.39-1.55-9.19-.31a14.92,14.92,0,0,0-5.35,3.5c-2.23,1.75-2.95,5.91-3.5,8.76-.68,3.43-.87,7.07-2.62,10.08a41.68,41.68,0,0,1-4,5,8.92,8.92,0,0,0-2.43,5.78c.11,2.43,1.83,4.69,1.46,7.1-.21,1.38-1.09,2.57-1.45,3.93-.65,2.5.61,5.25,2.52,7a21,21,0,0,0,6.83,3.61,23.32,23.32,0,0,1,7,3.39c2,1.65,3.79,4.21,6.41,4.92,2.25.62,4.62-.27,6.78-1.14,3.93-1.58,8-3.3,10.64-6.63,1.19-1.52,2-3.33,3.33-4.74s3.29-2.49,4-4.38C533.26,102.18,532.22,99.78,531,97.77Z"/><path class="cls-10" d="M473.37,226.92c1.89.67,5-7,5.33-7.67s1.23-.21.93.35c-.46.79-5,9.32-3.14,10,1,.36,1.52-1.54,1.52-1.54s3.64-8.28,4.51-7.94-1.11,5.26-1.89,6.91-.34,2.63.66,2.36c.67-.16,3.2-5.06,3.93-6.67s2.69-6.13,3.5-3.1,2.63,5,3.45,5.16a1,1,0,0,0,1.09-.84,1,1,0,0,0-.26-.8,10.9,10.9,0,0,1-1.4-2.79,5.61,5.61,0,0,1-.49-2.46,12.22,12.22,0,0,1,.11-1.28h0l0-1.32c.1-1.6.1-2.47.1-2.47h0l2.55-66L479.5,130.72l-.35,80.13h.05a90.6,90.6,0,0,0-5.6,7.49c-2.4,3.94-2.05,4.16-1.54,4.38,1.36.54,4.49-6.77,4.73-4.8S471.92,226.43,473.37,226.92Z"/><path class="cls-11" d="M533.88,192.83v-.33A1.28,1.28,0,0,1,533.88,192.83Z"/><path class="cls-10" d="M545.8,352.3S522,269.81,521.5,267.21c-.42-2.35,10.73-59.3,12.35-74.07l-33.87.31v.26l-16.35.44L492.2,358.6l18.05.26-.77-55.34c8.89,26,20.14,55.44,20.14,55.44Z"/><path class="cls-12" d="M498.7,263.56a17.13,17.13,0,0,1-.11,1.75,35.11,35.11,0,0,0,.09,4.81,43.71,43.71,0,0,0,1.2,7,69,69,0,0,0,2.87,8.26c2.23,5.83,4.22,11.12,5.64,14.95.67,1.86,1.23,3.4,1.65,4.55a11.2,11.2,0,0,1,.54,1.7,13.84,13.84,0,0,1-.73-1.62c-.45-1.15-1.07-2.63-1.8-4.49-1.51-3.81-3.56-9.07-5.79-14.89l-1.61-4.25a39.1,39.1,0,0,1-1.24-4.08,41.79,41.79,0,0,1-1.1-7.13,29.22,29.22,0,0,1,.08-4.86c.06-.57.13-1,.19-1.3A1.48,1.48,0,0,1,498.7,263.56Z"/><path class="cls-6" d="M492.11,360.33V358.4h18.15l.05,6.35-1.12.07c-5,.3-25.4,1.15-28.7.15C476.78,363.83,492.11,360.33,492.11,360.33Z"/><path class="cls-4" d="M486.24,364.91a8.14,8.14,0,0,0-.62-1.57,8.85,8.85,0,0,0-1.12-1.25,2.42,2.42,0,0,1,1.3,1.14A2.45,2.45,0,0,1,486.24,364.91Z"/><path class="cls-4" d="M491.55,362.19a2.47,2.47,0,0,1-.57-.7c-.26-.41-.43-.77-.38-.81s.3.28.57.69S491.6,362.15,491.55,362.19Z"/><path class="cls-4" d="M493,361.41a1.79,1.79,0,0,1-.63-.43c-.32-.28-.54-.54-.5-.58s.33.14.64.42S493.08,361.35,493,361.41Z"/><path class="cls-4" d="M494,359.69a2,2,0,0,1-.94.13,2.18,2.18,0,0,1-.95-.09,2.17,2.17,0,0,1,.95-.13A2.49,2.49,0,0,1,494,359.69Z"/><path class="cls-4" d="M494.25,358.49a1.87,1.87,0,0,1-1.05.31,1.81,1.81,0,0,1-1.1-.14,5.6,5.6,0,0,1,1.08-.07A5.46,5.46,0,0,1,494.25,358.49Z"/><path class="cls-4" d="M490.94,360.61a3.29,3.29,0,0,1-1.17,0,6.6,6.6,0,0,1-1.23-.27,3.65,3.65,0,0,1-.71-.29.65.65,0,0,1-.29-.36.44.44,0,0,1,.18-.46,2.12,2.12,0,0,1,2.62.61,2.06,2.06,0,0,1,.38.77.58.58,0,0,1,0,.32,3.26,3.26,0,0,0-.53-1,2.06,2.06,0,0,0-1-.64,1.81,1.81,0,0,0-1.39.09c-.18.14-.1.36.1.48a3.19,3.19,0,0,0,.66.28,8.1,8.1,0,0,0,1.2.3C490.49,360.58,490.94,360.58,490.94,360.61Z"/><path class="cls-4" d="M490.63,360.69a1.19,1.19,0,0,1-.13-.81,1.83,1.83,0,0,1,.31-.87,1.17,1.17,0,0,1,1-.6.47.47,0,0,1,.37.54,1.33,1.33,0,0,1-.2.51,2.89,2.89,0,0,1-.55.7,1.59,1.59,0,0,1-.66.48s.24-.2.55-.58a3.56,3.56,0,0,0,.48-.69c.16-.25.27-.69,0-.75s-.58.27-.76.5a1.92,1.92,0,0,0-.32.75A5.64,5.64,0,0,0,490.63,360.69Z"/><path class="cls-4" d="M510.18,359.38a12.09,12.09,0,0,0-1.34.05,5.63,5.63,0,0,0-4.71,3.79c-.27.77-.29,1.3-.34,1.29a1.15,1.15,0,0,1,0-.37,5.2,5.2,0,0,1,.19-1,5.59,5.59,0,0,1,1.83-2.7,5.49,5.49,0,0,1,3-1.2,5.35,5.35,0,0,1,1,0C510.06,359.32,510.18,359.36,510.18,359.38Z"/><path class="cls-4" d="M501.49,362.86a14.7,14.7,0,0,1-5.25.07c0-.06,1.18,0,2.62,0S501.48,362.8,501.49,362.86Z"/><path class="cls-4" d="M505,362.84c0,.05-.1.25-.22.52s-.19.52-.25.51-.09-.28.06-.6S505,362.8,505,362.84Z"/><path class="cls-4" d="M506.36,361.17s-.08.24-.27.42-.36.32-.41.27.07-.23.26-.42S506.31,361.13,506.36,361.17Z"/><path class="cls-4" d="M508.26,360.41c0,.06-.26.06-.52.15s-.45.23-.5.2.1-.29.43-.4S508.27,360.35,508.26,360.41Z"/><path class="cls-4" d="M509.61,360c0,.06-.07.15-.22.21s-.29.06-.32,0,.09-.16.24-.21S509.6,360,509.61,360Z"/><path class="cls-6" d="M530.23,360.8l-.82-1.75,16.4-7.76,2.76,5.72-1,.54c-4.38,2.4-22.45,11.87-25.89,12.39C517.86,370.52,530.23,360.8,530.23,360.8Z"/><path class="cls-4" d="M548.62,356.53l-.26.16-.79.44-2.9,1.54c-2.46,1.28-5.88,3-9.7,4.84s-7.32,3.4-9.87,4.51l-3,1.28-.82.35-.3.1a1.51,1.51,0,0,1,.28-.15l.81-.37,3-1.35c2.53-1.15,6-2.74,9.83-4.57s7.25-3.51,9.73-4.78l2.93-1.48.8-.4A1.48,1.48,0,0,1,548.62,356.53Z"/><path class="cls-4" d="M526.87,367.46a4.76,4.76,0,0,0-2.78-1.81A2.9,2.9,0,0,1,526.87,367.46Z"/><path class="cls-4" d="M530.51,362.72a2.16,2.16,0,0,1-.81-.38c-.42-.25-.73-.51-.69-.57s.39.12.81.38S530.55,362.67,530.51,362.72Z"/><path class="cls-4" d="M531.5,361.39c0,.06-.36,0-.76-.11s-.71-.26-.69-.32.36,0,.75.11S531.52,361.34,531.5,361.39Z"/><path class="cls-4" d="M531.6,359.45a2.31,2.31,0,0,1-.8.52,2.08,2.08,0,0,1-.87.32,2.51,2.51,0,0,1,.79-.52A2.18,2.18,0,0,1,531.6,359.45Z"/><path class="cls-4" d="M531.37,358.23a2.22,2.22,0,0,1-.81.73,1.76,1.76,0,0,1-1,.34,5.32,5.32,0,0,1,.93-.53A6.24,6.24,0,0,1,531.37,358.23Z"/><path class="cls-4" d="M529.28,361.56a3,3,0,0,1-1,.49,6.47,6.47,0,0,1-1.23.29,3.3,3.3,0,0,1-.77,0,.6.6,0,0,1-.41-.2.44.44,0,0,1,0-.49,2.14,2.14,0,0,1,2.63-.57,2,2,0,0,1,.67.54c.13.15.18.26.17.27a3.21,3.21,0,0,0-.88-.67,2,2,0,0,0-1.17-.15,1.78,1.78,0,0,0-1.21.68c-.1.2.05.37.29.38a2.81,2.81,0,0,0,.71,0,7.17,7.17,0,0,0,1.21-.23C528.87,361.72,529.27,361.56,529.28,361.56Z"/><path class="cls-4" d="M529,361.74a1.14,1.14,0,0,1-.46-.67,1.84,1.84,0,0,1-.08-.87,1.2,1.2,0,0,1,.61-1,.48.48,0,0,1,.56.34,1.28,1.28,0,0,1,.05.55,4.22,4.22,0,0,1-.19.87,1.74,1.74,0,0,1-.41.71,5.87,5.87,0,0,0,.26-.76,5.09,5.09,0,0,0,.14-.87c0-.29-.06-.73-.34-.66s-.43.49-.49.78a1.89,1.89,0,0,0,0,.82A4.79,4.79,0,0,0,529,361.74Z"/><path class="cls-4" d="M546.16,352.22s-.49.19-1.18.62a5.69,5.69,0,0,0-2.63,5.44c.09.82.29,1.31.25,1.31a.88.88,0,0,1-.16-.32,5.29,5.29,0,0,1-.24-1,5.49,5.49,0,0,1,2.72-5.59,5.43,5.43,0,0,1,.88-.41A1.55,1.55,0,0,1,546.16,352.22Z"/><path class="cls-4" d="M539.79,359.09a10.32,10.32,0,0,1-2.27,1.37,10.5,10.5,0,0,1-2.48,1c0-.06,1.08-.5,2.38-1.14S539.75,359,539.79,359.09Z"/><path class="cls-4" d="M543,357.56c.06,0,0,.27,0,.56s0,.55,0,.57-.21-.22-.21-.56S542.92,357.54,543,357.56Z"/><path class="cls-4" d="M543.46,355.49c.06,0,0,.23-.05.49s-.2.44-.26.42,0-.24.06-.49S543.41,355.44,543.46,355.49Z"/><path class="cls-4" d="M544.86,354c0,.06-.2.16-.4.36s-.31.41-.37.4,0-.31.22-.56S544.85,353.92,544.86,354Z"/><path class="cls-4" d="M545.93,353.07a.4.4,0,0,1-.11.29c-.12.12-.24.18-.28.13s0-.16.11-.28S545.89,353,545.93,353.07Z"/><path class="cls-6" d="M544.12,137.05s-1-2.36-2.88-17.28c-.81-6.5-5.25-10.51-10-13v-.08l-.41-.12a39,39,0,0,0-12.4-3.6l-16.75-.28s-11.61-.87-20.08,7c-2.78,2.57-5.62,25.62-5.62,25.62l8.37,3-.07-3.39s-.34,6.9,1.94,10.91l5.39,9.5L488.08,172c-2.22,6.38-9.51,29.69-6.65,52.79,3.5,28.59,4.12,36.95,4.12,36.95L526,267.29s16.16-60.56,10.62-84.62c-3.8-16.52-6.71-15.75-7.64-19.33l1-25.74Z"/><path class="cls-13" d="M525.08,223.73c.32.53-3.51,3.5-8.65,6.53s-9.51,5.12-9.84,4.58,3.51-3.46,8.66-6.53S524.75,223.23,525.08,223.73Z"/><path class="cls-13" d="M528.6,226.73c.29.56-1.37,2-3.57,3.5s-4.16,2.46-4.57,2,1-2.32,3.31-3.86S528.32,226.19,528.6,226.73Z"/><path class="cls-13" d="M504.71,230.23c.33.54-.62,1.69-2.11,2.58s-3,1.15-3.26.61.62-1.7,2.11-2.57S504.4,229.65,504.71,230.23Z"/><path class="cls-13" d="M507,204.75c.31.55-3.95,3.5-9.51,6.59s-10.33,5.16-10.62,4.61,3.94-3.51,9.5-6.6S506.65,204.2,507,204.75Z"/><path class="cls-13" d="M507.15,200.36c.28.56-.95,1.75-2.77,2.72s-3.5,1.24-3.81.68.95-1.75,2.77-2.71S506.86,199.81,507.15,200.36Z"/><path class="cls-13" d="M491.32,218.8c.33.54-1.06,2-3.1,3.17s-4,1.75-4.27,1.22,1.07-2,3.1-3.18S491,218.26,491.32,218.8Z"/><path class="cls-13" d="M536,183c.33.52-3,3.23-7.73,5.69s-8.84,3.71-9.08,3.14,3.42-2.72,8-5.15S535.71,182.45,536,183Z"/><path class="cls-13" d="M532.62,177.16c.44.44-.21,1.75-1.63,2.73s-2.91,1-3.16.46.66-1.54,1.9-2.36S532.18,176.7,532.62,177.16Z"/><path class="cls-13" d="M503.49,177.93c.35.52-2.22,2.85-5.76,5.21s-6.68,3.83-7,3.31,2.23-2.86,5.77-5.21S503.15,177.4,503.49,177.93Z"/><path class="cls-13" d="M517.75,148.39c.31.54-2.93,3-7.24,5.5s-8.08,4.07-8.39,3.5,2.92-3,7.24-5.5S517.43,147.85,517.75,148.39Z"/><path class="cls-13" d="M518.87,143.08c.19.61-1.44,1.67-3.5,2.63s-3.93,1.6-4.28,1.08,1.05-2.07,3.29-3.14S518.68,142.49,518.87,143.08Z"/><path class="cls-13" d="M508.55,132.62c.29.56-3.5,3.07-8.48,5.63s-9.24,4.16-9.52,3.6,3.5-3.08,8.49-5.63S508.27,132.06,508.55,132.62Z"/><path class="cls-13" d="M509.71,127.1c.29.57-1.22,1.92-3.36,3s-4.12,1.54-4.38,1,1.22-1.9,3.36-3S509.4,126.55,509.71,127.1Z"/><path class="cls-13" d="M536.85,115.66c.4.47-2.35,3.39-6.48,6s-7.88,3.93-8.18,3.37,3-2.73,6.95-5.26S536.48,115.16,536.85,115.66Z"/><path class="cls-13" d="M498.9,115.07c.31.55-4.25,3.81-10.19,7.3s-11,5.88-11.39,5.33,4.24-3.81,10.2-7.29S498.57,114.53,498.9,115.07Z"/><path class="cls-13" d="M495.87,113c.29.57-.73,1.66-2.26,2.46s-3,1-3.31.43.73-1.67,2.26-2.46S495.58,112.4,495.87,113Z"/><path class="cls-13" d="M527,126.62c.21.61-1,1.55-2.44,2.48s-2.87,1.56-3.31,1.1.37-2,2.1-3S526.76,126.05,527,126.62Z"/><path class="cls-13" d="M527.5,105.8c.34.53-.71,1.81-2.34,2.86s-3.24,1.47-3.58.93.71-1.81,2.35-2.85S527.16,105.27,527.5,105.8Z"/><path class="cls-13" d="M512.75,185.17c.31.55-.54,1.6-1.87,2.35s-2.68.87-3,.34.53-1.6,1.88-2.34S512.44,184.62,512.75,185.17Z"/><path class="cls-13" d="M531.37,203.15c.33.53-3.13,3.31-8,5.75s-9.18,3.54-9.4,3,3.63-2.63,8.37-5S531,202.61,531.37,203.15Z"/><path class="cls-13" d="M515.06,214.6c.31.56-.62,1.63-2.07,2.42s-2.86,1-3.16.41.62-1.63,2.08-2.41S514.76,214.05,515.06,214.6Z"/><path class="cls-13" d="M510.5,246.6c.3.55-4.6,3.76-10.94,7.17s-11.71,5.72-12,5.17,4.6-3.77,10.94-7.18S510.2,246.05,510.5,246.6Z"/><path class="cls-13" d="M509,242.66c.26.58-1.09,1.75-3,2.62s-3.72,1.17-4,.59,1.09-1.75,3-2.63S508.71,242.09,509,242.66Z"/><path class="cls-13" d="M526.82,255.19c.24.58-1.54,1.9-3.9,3.12s-4.45,1.95-4.8,1.41,1.3-2.15,3.74-3.42S526.57,254.61,526.82,255.19Z"/><path class="cls-10" d="M501.21,105.3c.45-4.65.82-9.56.82-9.56s-5.88-1.58-6.35-9.51c-.46-7.57,1.62-19.2,1.62-19.2l.21-1.69c9.32-5,19.58-3.09,25,4.38h0l-4.22,37.7A8.13,8.13,0,0,1,509,114.3h0A8.52,8.52,0,0,1,501.21,105.3Z"/><path class="cls-4" d="M497.52,75.05a1,1,0,0,0,.88,1.11,1,1,0,0,0,1.12-.78v0a1,1,0,0,0-.88-1.11,1,1,0,0,0-1.11.78Z"/><path class="cls-4" d="M497.52,74c.12.14.93-.34,2-.24s1.81.73,1.94.61,0-.3-.36-.59a2.88,2.88,0,0,0-1.54-.65,2.75,2.75,0,0,0-1.61.35C497.6,73.66,497.45,73.89,497.52,74Z"/><path class="cls-4" d="M508.73,76.51a1,1,0,0,0,.88,1.1,1,1,0,0,0,1.11-.76v0a1,1,0,0,0-.88-1.11,1,1,0,0,0-1.12.8Z"/><path class="cls-4" d="M508.74,75.45c.1.14.93-.34,2-.24s1.82.73,2,.61,0-.3-.36-.59a2.78,2.78,0,0,0-1.54-.64,2.59,2.59,0,0,0-1.61.35C508.84,75.16,508.68,75.39,508.74,75.45Z"/><path class="cls-4" d="M504,83.06a7.12,7.12,0,0,0-1.75-.49c-.28-.06-.53-.14-.56-.33a1.42,1.42,0,0,1,.27-.79l1-2a36.94,36.94,0,0,0,2.37-5.3,35.42,35.42,0,0,0-2.79,5.09c-.35.71-.67,1.39-1,2a1.53,1.53,0,0,0-.25,1.06.68.68,0,0,0,.41.45,1.47,1.47,0,0,0,.46.11A6.87,6.87,0,0,0,504,83.06Z"/><path class="cls-12" d="M502,95.74A19.89,19.89,0,0,0,512.78,94S509.71,99.1,502,97.61Z"/><path class="cls-12" d="M504.24,85.7a2,2,0,0,1,1.81-.55,1.75,1.75,0,0,1,1.16.78,1.16,1.16,0,0,1,0,1.29,1.33,1.33,0,0,1-1.46.22,4.07,4.07,0,0,1-1.29-1,1.3,1.3,0,0,1-.28-.34.36.36,0,0,1,0-.4"/><path class="cls-4" d="M507.14,84.12c-.18,0-.29,1.14-1.38,1.87s-2.32.48-2.34.65.26.25.78.31a2.92,2.92,0,0,0,1.95-.46,2.52,2.52,0,0,0,1.07-1.59C507.32,84.42,507.22,84.12,507.14,84.12Z"/><path class="cls-9" d="M501.32,72.53c-.06.18-.83,0-1.75,0s-1.69.13-1.75,0,.7-.61,1.75-.6S501.39,72.38,501.32,72.53Z"/><path class="cls-9" d="M512.48,73v0a7.72,7.72,0,0,0-1.75-.43c-1.05-.12-1.88.24-2,.07s.12-.26.48-.45a2.91,2.91,0,0,1,1.54-.25,2.57,2.57,0,0,1,1.81.87l.08.13h0C512.57,73,512.51,73,512.48,73Z"/><path class="cls-12" d="M512.76,80.23c-.09,0-.17-.11-.2-.27s0-.29.14-.31.16.11.18.27S512.85,80.22,512.76,80.23Z"/><path class="cls-12" d="M510.22,80.12c-.09,0-.15-.15-.08-.3s.21-.21.27-.15a.22.22,0,0,1,0,.27A.27.27,0,0,1,510.22,80.12Z"/><path class="cls-12" d="M511.59,81.22a.2.2,0,0,1-.22-.18.19.19,0,0,1,.17-.22.2.2,0,0,1,.23.17v0C511.76,81.14,511.68,81.23,511.59,81.22Z"/><path class="cls-12" d="M497.09,79.64c-.07,0-.14-.15-.12-.3s.12-.28.2-.28.14.15.13.31S497.18,79.64,497.09,79.64Z"/><path class="cls-12" d="M499.66,79.64c-.09,0-.16-.11-.15-.24s.09-.23.18-.23.14.11.14.24S499.75,79.64,499.66,79.64Z"/><path class="cls-12" d="M498.41,80.52c-.09,0-.16-.13-.16-.28s.06-.29.16-.29.16.12.16.28S498.5,80.52,498.41,80.52Z"/><path class="cls-9" d="M495,76.71a5.18,5.18,0,0,1,3.87-5.58c2.4-.53,5.11.72,7.29-.44,1.75-.87,2.52-3.08,4.27-3.93,1.46-.71,3.17-.34,4.79-.3s3.5-.54,4-2.11c-3.5-2.32-7.36-4.29-11.54-4.63s-8.69,1.19-11.06,4.65-2.21,7.78-2,11.86"/><path class="cls-9" d="M514.09,65.45c-.37,2.14-.36,4.5.94,6.23A11.78,11.78,0,0,1,516.7,74c.73,1.8-.24,3.84-.12,5.8a5.27,5.27,0,0,0,1.89,3.65,2.65,2.65,0,0,0,2.91.49,3.32,3.32,0,0,0,1.17-2.11,46.45,46.45,0,0,0,1.34-9.15A5.12,5.12,0,0,0,521,67.06a32.75,32.75,0,0,0-3.31-1.88,4.27,4.27,0,0,0-2.2-.61A1.6,1.6,0,0,0,514,66"/><path class="cls-10" d="M518.86,85.92a1.82,1.82,0,0,0,1.69.34,3.85,3.85,0,0,0,1.52-.87,5.67,5.67,0,0,0,1.48-2,3.32,3.32,0,0,0,.09-2.44,3.14,3.14,0,0,0-1.75-1.7,4.43,4.43,0,0,0-2.44-.27Z"/><path class="cls-12" d="M519.69,84.34c-.09,0,.23.54.94.37a1.53,1.53,0,0,0,.87-.77,3.88,3.88,0,0,0,.45-1.33,2.24,2.24,0,0,0-.25-1.44,1.37,1.37,0,0,0-1-.69c-.73,0-1,.48-.88.49a1.42,1.42,0,0,1,.81,0,1.38,1.38,0,0,1,.73,1.61c-.12.83-.46,1.59-.87,1.75S519.74,84.28,519.69,84.34Z"/><path class="cls-9" d="M535.47,106.61a3.78,3.78,0,0,1,.47-.06,2.24,2.24,0,0,0,1.16-.6,3.55,3.55,0,0,0,1-1.82,3.77,3.77,0,0,0-.46-2.67,10.87,10.87,0,0,0-2.15-2.63,17.87,17.87,0,0,1-2.72-3,5.82,5.82,0,0,1-.87-2.07,4.62,4.62,0,0,1,.21-2.33c.51-1.5,1.51-2.78,2.13-4.24a5.43,5.43,0,0,0-.07-4.38,11,11,0,0,0-2.49-3.5c-1-1-2-1.83-2.94-2.7a14.42,14.42,0,0,1-2.3-2.63,6.89,6.89,0,0,1-1.06-4.9,4.3,4.3,0,0,1,.49-1.29,1.82,1.82,0,0,1,.29-.38,6.38,6.38,0,0,0-.61,1.75,6.9,6.9,0,0,0,1.16,4.69A14.38,14.38,0,0,0,529,76.44c.88.87,2,1.68,3,2.67a11.32,11.32,0,0,1,2.62,3.62,6.32,6.32,0,0,1,.56,2.34,5.62,5.62,0,0,1-.49,2.43c-.64,1.55-1.65,2.81-2.11,4.22a4.34,4.34,0,0,0,.56,4,17.06,17.06,0,0,0,2.62,2.94,11,11,0,0,1,2.18,2.76,4.69,4.69,0,0,1,.49,1.48,3.42,3.42,0,0,1-.08,1.39,3.55,3.55,0,0,1-1.11,1.9,2.14,2.14,0,0,1-1.27.56A1.26,1.26,0,0,1,535.47,106.61Z"/><path class="cls-10" d="M543.1,137.05c-.49,7.64-.08,12-2.51,23.82C536.06,182.76,486.37,174,486.37,174h0c-3.84.14-6.49-.14-9,.07-3.1.28-4.38.17-4.38-.41,0-.78-.05-.48,5.52-1.75,0,0-8,1.75-6.54,0,.63-.77,7.23-2.32,7.23-2.32-5.19,1.75-7.42,1.56-7.64.76-.31-1.15,7.71-3,7.71-3s-6.13,1.5-7.24,1.43-.2-1.08.82-1.71,8.41-3.76,10.45-4.75a1.34,1.34,0,0,0,.83-1.7,1.21,1.21,0,0,0-.09-.2c-2-2.63-2.08-5.77-1.75-6.63a1,1,0,0,1,1.89.36,12.3,12.3,0,0,0,1.45,3,8.1,8.1,0,0,0,1.76,2c.8.64,1.51,1.17,2.12,1.6,5.13.48,19.68,1.54,31.85-3.07,4.47-1.69,4.81-20.48,4.81-20.48Z"/><path class="cls-12" d="M481.83,171.14a14.71,14.71,0,0,1-3.77,1,15,15,0,0,1-3.88.54,15,15,0,0,1,3.77-1.05A15.44,15.44,0,0,1,481.83,171.14Z"/><path class="cls-12" d="M481.56,169a18.62,18.62,0,0,1-4,1.34,16.86,16.86,0,0,1-4.09.87,35.85,35.85,0,0,1,8.05-2.21Z"/><path class="cls-12" d="M481.27,166.68a15.79,15.79,0,0,1-3.73,1.33,15.54,15.54,0,0,1-3.87.83,15.51,15.51,0,0,1,3.73-1.33A14.7,14.7,0,0,1,481.27,166.68Z"/></g><g id="freepik--character-3--inject-4"><path class="cls-11" d="M373.84,98.9l17.45-1.4c.12-2,0-9.92,0-9.92s7.27-1.13,7.36-8.39-1.17-23.95-1.17-23.95h0a25.23,25.23,0,0,0-25.39,3.2l-1.08.82Z"/><path class="cls-14" d="M391.27,87.46a16.91,16.91,0,0,1-9.47-2.7S384,90,391.29,89.34Z"/><path class="cls-11" d="M371.89,66.77c-.12-.06-5-1.48-4.83,3.5s5.11,3.79,5.12,3.65S371.89,66.77,371.89,66.77Z"/><path class="cls-14" d="M370.61,72.06a1.37,1.37,0,0,1-.24.14.88.88,0,0,1-.64,0,2.16,2.16,0,0,1-1.06-1.89,2.9,2.9,0,0,1,.21-1.24,1.05,1.05,0,0,1,.63-.7.46.46,0,0,1,.52.23c.07.13,0,.24.07.25s.09-.09,0-.3a.55.55,0,0,0-.2-.3.63.63,0,0,0-.48-.11,1.21,1.21,0,0,0-.88.79,3.06,3.06,0,0,0-.25,1.4,2.24,2.24,0,0,0,1.33,2.11,1,1,0,0,0,.79-.16C370.6,72.18,370.62,72.07,370.61,72.06Z"/><path class="cls-4" d="M395.84,66.61a1,1,0,0,1-1,1,1,1,0,0,1-1.07-.91v0a1,1,0,0,1,1-1,1,1,0,0,1,1.07.9Z"/><path class="cls-4" d="M396.07,65.44c-.13.14-.88-.45-2-.44s-1.93.56-2,.42.07-.3.42-.56a2.92,2.92,0,0,1,1.64-.51,2.77,2.77,0,0,1,1.62.52C396,65.14,396.14,65.39,396.07,65.44Z"/><path class="cls-4" d="M384.91,66.88a1,1,0,0,1-1,1,1,1,0,0,1-1.07-.92v0a1,1,0,0,1,1-1,1,1,0,0,1,1.07.91Z"/><path class="cls-4" d="M385.1,65.63c-.14.14-.92-.44-2-.43s-1.93.56-2.05.42.07-.31.43-.56a2.75,2.75,0,0,1,1.64-.51,2.69,2.69,0,0,1,1.62.51C385,65.34,385.16,65.63,385.1,65.63Z"/><path class="cls-4" d="M389.15,73.93A7,7,0,0,1,391,73.6c.28,0,.55-.08.61-.28a1.52,1.52,0,0,0-.2-.88c-.27-.69-.55-1.41-.87-2.17a36.77,36.77,0,0,1-1.9-5.68,35.71,35.71,0,0,1,2.34,5.52c.29.76.56,1.49.82,2.18a1.73,1.73,0,0,1,.14,1.12.71.71,0,0,1-.47.42,1.86,1.86,0,0,1-.48.06A7.22,7.22,0,0,1,389.15,73.93Z"/><path class="cls-4" d="M385.87,74.7c.17,0,.18,1.2,1.21,2.06a6.06,6.06,0,0,0,2.34.88c0,.15-.29.23-.83.24a3.06,3.06,0,0,1-1.95-.67,2.6,2.6,0,0,1-.95-1.75C385.65,75,385.78,74.7,385.87,74.7Z"/><path class="cls-4" d="M385.38,61.26c-.11.29-1.22.15-2.53.31s-2.37.52-2.54.25.1-.42.53-.71a4.26,4.26,0,0,1,1.88-.67,4.21,4.21,0,0,1,2,.24C385.19,60.9,385.43,61.13,385.38,61.26Z"/><path class="cls-4" d="M395.65,62.21c-.19.25-1,0-1.88,0s-1.71.17-1.89-.1,0-.38.39-.62a2.76,2.76,0,0,1,3,.1C395.64,61.82,395.74,62.13,395.65,62.21Z"/><path class="cls-4" d="M401,50.64a2.68,2.68,0,0,0-1-2.39,1.89,1.89,0,0,0-2.46.18,2.22,2.22,0,0,0-1.68-2.65l-.23,0c-1.18-.08-2.2.82-3.34,1.13a5.42,5.42,0,0,1-3.39-.39c-1.08-.43-2.08-1-3.17-1.43a9.3,9.3,0,0,0-11.88,5.45,4.16,4.16,0,0,0-4.38,1.66,6.7,6.7,0,0,0-1,4.77,14.72,14.72,0,0,0,.83,3.26,1.31,1.31,0,0,0,0,.28c.07,4,.52,8.68,2.22,8.75,3,0,2.27-5.55,2.27-5.55,3.64-1.41,2.28-6.87,3.19-7.69s2.82-2.76,10.46,1.14a14.74,14.74,0,0,0,9.05,1h.26a6.7,6.7,0,0,0,2-.87,3.85,3.85,0,0,0,1.61-1.75,2.11,2.11,0,0,0-.41-2.27A4.68,4.68,0,0,0,401,50.64Z"/><path class="cls-5" d="M382.62,360.43l-.21-9.18-17.2.28.16,13.43,1.07.05c4.75.19,24.16.62,27.32-.4C397.28,363.48,382.62,360.43,382.62,360.43Z"/><path class="cls-4" d="M365.12,364.57h1.18l3.12.09c2.63,0,6.3.07,10.33,0s7.68-.21,10.32-.34l3.12-.17.88-.06a1.47,1.47,0,0,0,.29,0h-1.17l-3.13.11c-2.63.09-6.29.21-10.31.27s-7.68.06-10.33,0h-4.27Z"/><path class="cls-4" d="M388.3,364.68a7.32,7.32,0,0,1,.56-1.5,6.39,6.39,0,0,1,1.05-1.21,2.23,2.23,0,0,0-1.22,1.1A2.31,2.31,0,0,0,388.3,364.68Z"/><path class="cls-4" d="M383.19,362.19a2.24,2.24,0,0,0,.53-.68c.25-.4.4-.74.35-.77s-.29.26-.53.67S383.13,362.15,383.19,362.19Z"/><path class="cls-4" d="M381.79,361.47a1.59,1.59,0,0,0,.59-.41c.29-.27.5-.53.46-.57s-.31.15-.6.41S381.74,361.42,381.79,361.47Z"/><path class="cls-4" d="M380.88,359.86a2,2,0,0,0,.87.1,1.88,1.88,0,0,0,.88-.11,2.19,2.19,0,0,0-.88-.1A2.13,2.13,0,0,0,380.88,359.86Z"/><path class="cls-4" d="M380.56,358.72a2.45,2.45,0,0,0,2,.12,4.85,4.85,0,0,0-1,0A5.83,5.83,0,0,0,380.56,358.72Z"/><path class="cls-4" d="M383.75,360.69a3.38,3.38,0,0,0,1.1,0,7.67,7.67,0,0,0,1.17-.28,3.08,3.08,0,0,0,.67-.29.59.59,0,0,0,.27-.35.42.42,0,0,0-.17-.44,2,2,0,0,0-2.5.63,2.34,2.34,0,0,0-.35.75.71.71,0,0,0,0,.29,3.52,3.52,0,0,1,.49-.94,1.94,1.94,0,0,1,.94-.63,1.75,1.75,0,0,1,1.31.07c.18.12.11.33-.08.45a4.22,4.22,0,0,1-.61.28,8.71,8.71,0,0,1-1.14.31Z"/><path class="cls-4" d="M384,360.69a1.09,1.09,0,0,0,.11-.77,1.8,1.8,0,0,0-.32-.8,1.1,1.1,0,0,0-.92-.55.44.44,0,0,0-.34.52,1.3,1.3,0,0,0,.2.49,3,3,0,0,0,.53.65,1.5,1.5,0,0,0,.64.44,7,7,0,0,1-.53-.53,3.48,3.48,0,0,1-.48-.66c-.15-.24-.26-.65,0-.71s.57.25.74.47a1.66,1.66,0,0,1,.32.7A4.73,4.73,0,0,1,384,360.69Z"/><path class="cls-4" d="M365.4,359.86s.49-.06,1.27,0a5.44,5.44,0,0,1,4.57,3.5c.27.73.3,1.23.34,1.23s0-.13,0-.35a5.19,5.19,0,0,0-4.86-4.55,5,5,0,0,0-1,0A1.12,1.12,0,0,0,365.4,359.86Z"/><path class="cls-4" d="M367.07,352.68a61.3,61.3,0,0,0,0,7,31.4,31.4,0,0,0,.1-3.5A29.17,29.17,0,0,0,367.07,352.68Z"/><path class="cls-4" d="M373.75,363a14.11,14.11,0,0,0,5,0c0-.06-1.13,0-2.51,0S373.75,363,373.75,363Z"/><path class="cls-4" d="M370.38,363.06c-.05.05.09.24.21.49s.18.49.24.48.09-.27-.05-.57S370.41,363,370.38,363.06Z"/><path class="cls-4" d="M369.08,361.5s.07.22.26.4.35.29.39.24-.07-.22-.25-.39S369.12,361.46,369.08,361.5Z"/><path class="cls-4" d="M367.25,360.81c0,.05.24.05.49.13s.44.22.48.18-.09-.27-.41-.37S367.23,360.76,367.25,360.81Z"/><path class="cls-4" d="M366,360.49c0,.05.09.14.23.19s.27.05.29,0-.08-.14-.22-.19S366,360.44,366,360.49Z"/><path class="cls-5" d="M419.53,360.41l-.25-9.18-17.2.37.24,13.43,1.07.05c4.74.16,24.16.49,27.31-.55C434.23,363.39,419.53,360.41,419.53,360.41Z"/><path class="cls-4" d="M402.08,364.65h1.17l3.13.07c2.63,0,6.29,0,10.32,0s7.68-.24,10.32-.39l3.12-.19.88-.07h-.88l-3.12.13c-2.63.11-6.29.24-10.32.32s-7.68.1-10.32.1h-4Z"/><path class="cls-4" d="M425.26,364.64a6.36,6.36,0,0,1,.55-1.51,7.54,7.54,0,0,1,1-1.22,2.79,2.79,0,0,0-1.59,2.73Z"/><path class="cls-4" d="M420.13,362.17a2.26,2.26,0,0,0,.53-.68,1.93,1.93,0,0,0,.35-.77,2.13,2.13,0,0,0-.53.67A1.78,1.78,0,0,0,420.13,362.17Z"/><path class="cls-4" d="M418.72,361.46a1.69,1.69,0,0,0,.6-.42c.29-.27.49-.53.46-.57s-.31.15-.6.42S418.65,361.42,418.72,361.46Z"/><path class="cls-4" d="M417.78,359.86a3.91,3.91,0,0,0,1.8,0,2,2,0,0,0-.87-.1A2,2,0,0,0,417.78,359.86Z"/><path class="cls-4" d="M417.48,358.72a1.78,1.78,0,0,0,1,.27,1.75,1.75,0,0,0,1-.17,7,7,0,0,0-1,0A5.82,5.82,0,0,0,417.48,358.72Z"/><path class="cls-4" d="M420.69,360.69a2.91,2.91,0,0,0,1.1,0,6.56,6.56,0,0,0,1.16-.29,3.16,3.16,0,0,0,.68-.29.58.58,0,0,0,.26-.35.46.46,0,0,0-.17-.44,2,2,0,0,0-2.5.65,1.89,1.89,0,0,0-.34.75.71.71,0,0,0,0,.29,3.4,3.4,0,0,1,.48-.95,1.94,1.94,0,0,1,.94-.63,1.66,1.66,0,0,1,1.31.06c.18.12.11.33-.08.45a3.37,3.37,0,0,1-.61.28,9.05,9.05,0,0,1-1.13.32C421.11,360.61,420.68,360.62,420.69,360.69Z"/><path class="cls-4" d="M421,360.69a1.09,1.09,0,0,0,.11-.77,1.84,1.84,0,0,0-.32-.81,1.14,1.14,0,0,0-.93-.54.43.43,0,0,0-.33.51h0a1.3,1.3,0,0,0,.2.49,3.35,3.35,0,0,0,.53.65,1.6,1.6,0,0,0,.65.44,5.44,5.44,0,0,1-.54-.54,4.36,4.36,0,0,1-.48-.65c-.15-.24-.27-.65,0-.71s.56.24.74.46a1.7,1.7,0,0,1,.32.71A3.78,3.78,0,0,1,421,360.69Z"/><path class="cls-4" d="M402.33,359.94a6.11,6.11,0,0,1,1.27,0,5.38,5.38,0,0,1,4.58,3.5,10.92,10.92,0,0,1,.35,1.22s0-.13,0-.35a4.2,4.2,0,0,0-.2-.92,5.23,5.23,0,0,0-4.71-3.59,4.23,4.23,0,0,0-.94,0C402.45,359.88,402.33,359.92,402.33,359.94Z"/><path class="cls-4" d="M404,352.74a34,34,0,0,0-.07,3.5,31.41,31.41,0,0,0,.13,3.5,29.17,29.17,0,0,0,.08-3.5A27.24,27.24,0,0,0,404,352.74Z"/><path class="cls-4" d="M410.7,363a13.81,13.81,0,0,0,5-.06,22.66,22.66,0,0,0-2.51.06C411.83,363.09,410.7,363,410.7,363Z"/><path class="cls-4" d="M407.33,363.11c-.05,0,.09.23.21.49s.19.49.25.48.08-.27-.06-.57S407.36,363.07,407.33,363.11Z"/><path class="cls-4" d="M406,361.56c0,.05.07.22.25.4s.36.29.41.24-.08-.22-.26-.39S406.06,361.51,406,361.56Z"/><path class="cls-4" d="M404.19,360.87c0,.06.24.06.49.13s.44.22.48.18-.1-.27-.42-.37S404.16,360.82,404.19,360.87Z"/><path class="cls-4" d="M402.9,360.56c0,.05.07.14.22.19s.27.05.29,0-.08-.14-.22-.19S402.9,360.51,402.9,360.56Z"/><path class="cls-11" d="M422.73,129s3.17,18.93,5.35,19.81c12.1,4.78,26.59,4.42,31.73,4.11a26.56,26.56,0,0,0,2.18-1.54,7.82,7.82,0,0,0,1.81-1.95,12.14,12.14,0,0,0,1.56-3,1,1,0,0,1,1.14-.85,1,1,0,0,1,.76.55c.33.88-.47,3.16-1.93,6.3,0,0-.81,1.66.67,2.19s10.88,4,11.65,4.87.54,1.93-.61,2a64.45,64.45,0,0,1-7.18-1.67s7.88,1.75,7.95,2.63c.13,1.32-2.82,1.44-7.95-.46,0,0,8.24.78,7.75,2.75-.24,1-7.62-.71-7.62-.71-.65.87,7.62.78,7.59,2,0,.58-1.16,1-5,.71-2.33-.14-6.19-.43-10-.69v0s-49.22,7.32-53.19-14.71c-2.68-14.89-1.82-14.55-2.76-22.5"/><path class="cls-14" d="M465.63,162.65c-.06,0-.34-.34-.88-.87a6.09,6.09,0,0,0-2.55-1.4l-.54-.15.48-.32c.11-.08.24-.15.35-.24a7.29,7.29,0,0,0,2.14-2.38,8.6,8.6,0,0,1,.66-1.21,2.57,2.57,0,0,1-.33,1.38,6.45,6.45,0,0,1-2.17,2.63l-.38.25-.07-.47A5.49,5.49,0,0,1,465,161.5C465.5,162.16,465.68,162.63,465.63,162.65Z"/><path class="cls-14" d="M476.52,161.63a21.81,21.81,0,0,1-3.72-1.06,20.74,20.74,0,0,1-3.68-1.22A17.25,17.25,0,0,1,476.52,161.63Z"/><path class="cls-14" d="M476.44,163.45a56.48,56.48,0,0,1-6.68-1.61,9.11,9.11,0,0,1,3.44.4A9,9,0,0,1,476.44,163.45Z"/><polygon class="cls-6" points="361.95 178.1 361.95 358.4 388.74 357.36 391.03 199.88 400.12 357.99 427.42 359.32 413.96 179.69 361.95 178.1"/><path class="cls-7" d="M393.26,179.71a16.47,16.47,0,0,1,.23,3.06c.07,1.89.14,4.51.19,7.4v4.08a8.11,8.11,0,0,1-.56,3.34,3.78,3.78,0,0,1-1.52,1.76c-.49.26-.8.27-.8.24s.27-.11.7-.41a3.92,3.92,0,0,0,1.28-1.7,8.1,8.1,0,0,0,.42-3.2c0-1.27-.05-2.63-.08-4.08,0-2.88,0-5.5,0-7.39A18.83,18.83,0,0,1,393.26,179.71Z"/><path class="cls-7" d="M389.21,181.72c.05.06-.35.3-.37.88a1,1,0,0,0,.39.87.94.94,0,0,0,1.07-.08.82.82,0,0,0,.26-1.12,1,1,0,0,0-.2-.22,1.13,1.13,0,0,0-1.08-.26v-.2c.22.11.33.19.32.23s-.14,0-.39,0l-.22,0,.2-.15a1.28,1.28,0,0,1,1.46.11,1.33,1.33,0,0,1,.54,1,1.32,1.32,0,0,1-.55,1.13,1.38,1.38,0,0,1-1.66,0,1.31,1.31,0,0,1-.46-1.26,1.23,1.23,0,0,1,.43-.78C389.08,181.7,389.2,181.69,389.21,181.72Z"/><path class="cls-7" d="M389,352.42c0,.14-6,.26-13.41.26s-13.41-.12-13.41-.26,6-.26,13.41-.26S389,352.28,389,352.42Z"/><path class="cls-7" d="M426.27,351.39c0,.15-6,.26-13.31.26s-13.3-.11-13.3-.26,6-.25,13.3-.25S426.27,351.25,426.27,351.39Z"/><path class="cls-7" d="M375.75,181.11c.13,0,.23,38.07.23,85s-.1,85-.23,85-.22-38.06-.22-85S375.6,181.11,375.75,181.11Z"/><path class="cls-7" d="M405.44,181.11c.13,0,2.1,37.81,4.38,84.46s4.09,84.48,4,84.49-2.1-37.81-4.42-84.47S405.31,181.11,405.44,181.11Z"/><path class="cls-11" d="M383.63,201.34a11.4,11.4,0,0,1-3.14.19A8,8,0,0,1,378,201l-1-.44a8.81,8.81,0,0,1-3.72-3.09c-4.07-6-16.32-24-18-27.94-2-4.73,5.6-41,5.6-41l-15.06-4.89s-7.31,31.88-6.92,47.57c.25,10,27.63,37.56,27.65,37.58a92.36,92.36,0,0,0,5,8.64c2.7,3.79,3,3.55,3.42,3.16,1-1-4.48-6.85-2.57-6.29s5.94,7.88,7,6.76c1.37-1.49-4.53-7.46-5-8s.31-1.24.7-.72c.56.73,6.65,8.32,8,6.88.75-.8-.82-2-.82-2s-6.21-6.68-5.56-7.34,4.46,3.12,5.65,4.5,2.29,1.35,2.46.33c.11-.7-3.42-5-4.62-6.31s-4.57-4.91-1.47-4.5,5.63-.43,6.13-1.14S384.51,201.07,383.63,201.34Z"/><path class="cls-5" d="M363,130.73l-.17,22.15-1.18,25.45,52.48,1.36-3.39-27.32-1.34-25.86s4.1-17.1,3.09-19.73a10.7,10.7,0,0,0-6.36-6.51c-.68-.39-10.35-3.5-13.93-3.69V89.82c-6,.6-9.12,7.71-9.12,7.71-2.5-6-11.87-6.89-11.87-6.89l.18,6.21a44.36,44.36,0,0,0-9.82,1.8c-5.25,1.89-8.1,3.24-12,7.14-2.69,2.68-5,12.5-5.67,17"/><path class="cls-4" d="M381.3,95.17a2.55,2.55,0,0,0-1.76.22,3,3,0,0,0-1.24,1.45,7.06,7.06,0,0,0-.39,1.12l-.17.62a1.63,1.63,0,0,1-.33.72.75.75,0,0,1-.47.23,1,1,0,0,1-.43-.09l-.61-.28-1.09-.55L373,97.67a7,7,0,0,1-1.64-1,7.35,7.35,0,0,1,1.8.66l1.9.87,1.11.52.58.26c.18.07.25.06.33,0a4.38,4.38,0,0,0,.39-1.12,7,7,0,0,1,.44-1.18,3.26,3.26,0,0,1,1.52-1.57,2.2,2.2,0,0,1,1.45-.17C381.17,95,381.31,95.14,381.3,95.17Z"/><path class="cls-6" d="M392.3,96.21a28,28,0,0,1-4.06,3.38l-.34.25-.07-.42-.1-.53a6.09,6.09,0,0,0-1.52-3.58,5.45,5.45,0,0,0-1.39-.88,2,2,0,0,1,1.63.6,4.19,4.19,0,0,1,1.16,1.54,9.5,9.5,0,0,1,.64,2.23,4.21,4.21,0,0,0,.08.53l-.41-.15A29.33,29.33,0,0,1,392.3,96.21Z"/><path class="cls-5" d="M407.27,100.79s8.64,2.93,12.37,14.56a179,179,0,0,1,5.59,22.7l-14.67,5-5.49-33.41Z"/><path class="cls-5" d="M425.24,138.05s1.54,6.84,2.42,8.09.63,2.24,7.54,3.86,15.62,2.51,18.67,2.15l2.15.08,1.44,15.15s-17.32,2.46-29-.5-16.79-7-17.42-9.63-1.26-15.45-1.26-15.45Z"/><path class="cls-5" d="M363.5,207.26l11.79-11.08s-17.7-23.55-18.33-27.84,6.23-39.8,6.23-39.8L344.1,121.3s-7.38,35-7.37,50.21C336.77,178.63,363.5,207.26,363.5,207.26Z"/><path class="cls-13" d="M420.07,116.55a4,4,0,0,1-.71-.31,8.47,8.47,0,0,0-.87-.38,10.59,10.59,0,0,0-1.19-.43,22.54,22.54,0,0,0-8-1,58.74,58.74,0,0,0-11.85,1.94c-4.38,1-9.36,2.24-14.67,1.85s-10.06-2.17-14.36-3.55a52.78,52.78,0,0,0-11.68-2.81,22.58,22.58,0,0,0-8,.55,10.07,10.07,0,0,0-1.22.36,9.25,9.25,0,0,0-.88.32,4.44,4.44,0,0,1-.72.27,13,13,0,0,1,2.76-1.13,21.56,21.56,0,0,1,8.11-.68,51.79,51.79,0,0,1,11.78,2.71c4.31,1.37,9.06,3.1,14.27,3.51s10.12-.83,14.53-1.81a58.19,58.19,0,0,1,11.94-1.85,21.85,21.85,0,0,1,8.06,1.17A12.47,12.47,0,0,1,420.07,116.55Z"/><path class="cls-13" d="M360.13,139.57a12.64,12.64,0,0,1-2.75,0,56.67,56.67,0,0,1-6.61-.87,57.52,57.52,0,0,1-6.46-1.61,14.12,14.12,0,0,1-2.58-1,20.41,20.41,0,0,1,2.67.66c1.65.44,3.91,1,6.46,1.48s4.86.78,6.55,1A22.73,22.73,0,0,1,360.13,139.57Z"/><path class="cls-13" d="M424.78,139.4a2.37,2.37,0,0,1-.41.49,8.38,8.38,0,0,1-1.43,1.15,11.89,11.89,0,0,1-6.47,1.75c-2.88.07-6.21-.87-9.74-2.12a54.54,54.54,0,0,0-5.59-1.7,31.79,31.79,0,0,0-6.22-.71c-1.08-.06-2.15,0-3.19,0a24.29,24.29,0,0,0-3.09.25c-2,.2-4,.5-5.82.76-3.7.56-7.06,1-9.9,1.23a42,42,0,0,1-6.73-.06c-.79-.1-1.4-.2-1.81-.27a6.18,6.18,0,0,1-.62-.12,2.29,2.29,0,0,1,.64,0l1.81.18a46.69,46.69,0,0,0,6.69-.09c2.82-.23,6.13-.73,9.86-1.31,1.85-.28,3.8-.59,5.83-.8,1-.13,2.07-.17,3.12-.26a23,23,0,0,1,3.22-.05,31.78,31.78,0,0,1,6.3.73,55.71,55.71,0,0,1,5.64,1.75c3.5,1.25,6.78,2.24,9.63,2.2a12.22,12.22,0,0,0,6.38-1.53A14.36,14.36,0,0,0,424.78,139.4Z"/><path class="cls-13" d="M357.31,167.37c0,.08-1.1-.24-2.87-.61a37.52,37.52,0,0,0-14-.26c-1.75.3-2.86.59-2.88.51a2.76,2.76,0,0,1,.74-.28,18.68,18.68,0,0,1,2.08-.54,31.2,31.2,0,0,1,7.08-.68,32.3,32.3,0,0,1,7.05.93,21,21,0,0,1,2.05.62A3,3,0,0,1,357.31,167.37Z"/><path class="cls-13" d="M411.65,167.34s-.56-.43-1.64-1.13a19.13,19.13,0,0,0-4.88-2.25,27,27,0,0,0-7.88-1.12A49.23,49.23,0,0,0,387.5,164c-3.42.72-6.66,1.56-9.63,2.18a55.38,55.38,0,0,1-8,1.14,29.09,29.09,0,0,1-5.44-.15A14.46,14.46,0,0,1,363,167a2.17,2.17,0,0,1-.5-.13c0-.05.7.09,2,.2a32.58,32.58,0,0,0,5.41,0,57.27,57.27,0,0,0,7.94-1.24c3-.63,6.2-1.48,9.64-2.2a47.85,47.85,0,0,1,9.84-1.17,26.81,26.81,0,0,1,8,1.22,18.59,18.59,0,0,1,4.89,2.42,10.27,10.27,0,0,1,1.16.93A3.73,3.73,0,0,1,411.65,167.34Z"/><path class="cls-8" d="M438.79,151.76a2,2,0,0,1,.15.69,12.12,12.12,0,0,1,.12,1.9,17.61,17.61,0,0,1-4.46,11.52,11.58,11.58,0,0,1-1.38,1.33,2.37,2.37,0,0,1-.57.41c0-.06.7-.72,1.7-2a19.47,19.47,0,0,0,4.38-11.32C438.79,152.76,438.71,151.77,438.79,151.76Z"/><path class="cls-13" d="M367.87,186.92c0,.08-.93.27-2.4.74a26.59,26.59,0,0,0-10.34,6c-1.13,1.06-1.76,1.79-1.82,1.75s.11-.22.37-.57a14.84,14.84,0,0,1,1.23-1.4,21.9,21.9,0,0,1,4.81-3.76,22.83,22.83,0,0,1,5.66-2.36,15.69,15.69,0,0,1,1.81-.37A2.57,2.57,0,0,1,367.87,186.92Z"/><path class="cls-8" d="M453.62,152.51a8.44,8.44,0,0,1,.63,2.19,31.41,31.41,0,0,1,.64,5.46,30.66,30.66,0,0,1-.32,5.5,8.58,8.58,0,0,1-.5,2.23,17.22,17.22,0,0,1,.18-2.27,42.55,42.55,0,0,0-.32-10.87A15.1,15.1,0,0,1,453.62,152.51Z"/><path class="cls-6" d="M387.56,110.29c-.05-.06.39-.25.87.16a1.21,1.21,0,0,1,.4,1,1.16,1.16,0,1,1-2.3-.24,1.23,1.23,0,0,1,.08-.33c.25-.58.73-.6.71-.53a1.45,1.45,0,0,0-.37.65.91.91,0,0,0,.12.68.72.72,0,0,0,.73.22.68.68,0,0,0,.55-.52.88.88,0,0,0-.18-.66A.8.8,0,0,0,387.56,110.29Z"/><path class="cls-6" d="M389.47,128.8c0-.06.4-.24.88.17a1.17,1.17,0,0,1,.39,1,1.2,1.2,0,0,1-1.4,1,1.22,1.22,0,0,1-.74-.47,1.14,1.14,0,0,1-.07-1.06c.25-.58.72-.6.71-.53a1.46,1.46,0,0,0-.37.64.9.9,0,0,0,.12.68.77.77,0,0,0,1.08,0,.83.83,0,0,0,.2-.32.89.89,0,0,0-.18-.67C389.81,128.87,389.47,128.88,389.47,128.8Z"/><path class="cls-6" d="M390.64,146.92c0-.06.39-.25.87.16a1.12,1.12,0,0,1-1,1.95,1.16,1.16,0,0,1-.75-.47,1.2,1.2,0,0,1-.08-1.06c.27-.57.73-.6.72-.53a1.56,1.56,0,0,0-.37.65.87.87,0,0,0,.13.68.75.75,0,0,0,1.27-.3.85.85,0,0,0-.18-.65C391,147,390.64,147,390.64,146.92Z"/><path class="cls-6" d="M391.85,166.64c0-.07.39-.25.87.16a1.21,1.21,0,0,1,.4,1,1.15,1.15,0,0,1-.87,1,1.14,1.14,0,0,1-1.24-.46,1.17,1.17,0,0,1-.07-1.06c.26-.58.73-.6.71-.53a1.49,1.49,0,0,0-.36.65.84.84,0,0,0,.12.67.75.75,0,0,0,1.06.05.77.77,0,0,0,.22-.34.86.86,0,0,0-.19-.66C392.19,166.71,391.85,166.71,391.85,166.64Z"/><path class="cls-6" d="M388.79,176.47a5.42,5.42,0,0,1-.08-.8c0-.58-.07-1.35-.12-2.3-.11-2.06-.26-4.94-.43-8.48-.37-7.15-1-17-1.8-27.91s-1.71-20.76-2.34-27.89c-.31-3.5-.56-6.4-.74-8.44-.08-1-.14-1.76-.18-2.31a5.34,5.34,0,0,1,0-.8,5.42,5.42,0,0,1,.13.79c.07.57.17,1.34.28,2.29.22,2,.53,4.91.88,8.44.72,7.13,1.66,17,2.49,27.88s1.38,20.78,1.66,27.94c.14,3.58.22,6.47.26,8.48v2.3A4.38,4.38,0,0,1,388.79,176.47Z"/><path class="cls-6" d="M413.4,172.45a1.73,1.73,0,0,1-.12-.51c-.07-.39-.17-.87-.27-1.47-.23-1.28-.52-3.13-.88-5.44-.68-4.59-1.51-11-2.38-18s-1.67-13.4-2.34-18l-.8-5.44c-.08-.59-.15-1.08-.21-1.48s-.06-.52,0-.52a2.85,2.85,0,0,1,.14.5l.3,1.47c.26,1.27.6,3.12,1,5.42.75,4.57,1.62,10.94,2.48,18s1.66,13.33,2.23,18c.28,2.24.52,4.09.7,5.45.07.6.12,1.09.17,1.48A2.35,2.35,0,0,1,413.4,172.45Z"/><path class="cls-6" d="M363,130.21a6.72,6.72,0,0,1,.1-1.34c.1-1,.24-2.18.4-3.63s.34-3.36.52-5.4c.07-1,.16-2.09.24-3.19a21.44,21.44,0,0,0,0-3.4,7.66,7.66,0,0,0-1-3.16,6.85,6.85,0,0,0-2.15-2.17,10.93,10.93,0,0,0-5-1.58,31.59,31.59,0,0,0-3.64-.06,7.5,7.5,0,0,1-1.34,0,6.68,6.68,0,0,1,1.33-.2,23.79,23.79,0,0,1,3.68-.1,11,11,0,0,1,5.25,1.55,7.17,7.17,0,0,1,2.34,2.31,7.72,7.72,0,0,1,1,3.37,20.45,20.45,0,0,1,0,3.5c-.08,1.11-.17,2.18-.27,3.2-.19,2-.41,3.87-.62,5.4s-.41,2.77-.57,3.62A6.29,6.29,0,0,1,363,130.21Z"/></g><g id="freepik--character-1--inject-4"><path class="cls-5" d="M164.82,357.19l-1.75,7.27s-11.89,15.45-15.56,14.69c-2.4-.49.55-4.52,5.08-16.25l.94-4.85Z"/><path class="cls-4" d="M147.05,376.84a1.48,1.48,0,0,0,.63.61,2.18,2.18,0,0,0,2.27-.32,63.94,63.94,0,0,0,5.92-5.6c2.21-2.31,4-4.54,5.35-6.17.59-.75,1.09-1.41,1.52-2l.42-.53a1.22,1.22,0,0,1,.15-.17.82.82,0,0,1-.12.2l-.38.56c-.34.48-.87,1.16-1.47,2a76.75,76.75,0,0,1-5.31,6.22,58.63,58.63,0,0,1-6,5.59,2.73,2.73,0,0,1-1.35.49,1.92,1.92,0,0,1-1.05-.22,1.33,1.33,0,0,1-.5-.47A.54.54,0,0,1,147.05,376.84Z"/><path class="cls-4" d="M148.73,371.88a2,2,0,0,1,1-.12,5.46,5.46,0,0,1,2.24.78,4.2,4.2,0,0,1,1.63,1.76,1.91,1.91,0,0,1,.25.94,5.13,5.13,0,0,0-.39-.87,4.32,4.32,0,0,0-1.61-1.62,5.67,5.67,0,0,0-2.14-.8C149.37,371.91,149.05,371.89,148.73,371.88Z"/><path class="cls-4" d="M160,368.25a.83.83,0,0,1-.14-.35,5.71,5.71,0,0,1-.24-1,5.42,5.42,0,0,1,.55-3.31,5,5,0,0,1,2.41-2.33,3.73,3.73,0,0,1,1-.31.81.81,0,0,1,.38,0,6.7,6.7,0,0,0-1.3.46,5.23,5.23,0,0,0-2.28,2.3,5.67,5.67,0,0,0-.59,3.19C159.85,367.69,160,368.25,160,368.25Z"/><path class="cls-4" d="M164.06,358.4c.05,0-.21,1-.44,2.32A7.87,7.87,0,0,1,163,363c-.05,0,.19-1,.41-2.33A8.19,8.19,0,0,1,164.06,358.4Z"/><path class="cls-4" d="M152.39,363.89a3.47,3.47,0,0,1,2.9.65c0,.06-.63-.26-1.42-.44S152.4,364,152.39,363.89Z"/><path class="cls-4" d="M152.15,365.14a2.41,2.41,0,0,1,2.41.57c0,.06-.51-.26-1.18-.41S152.16,365.2,152.15,365.14Z"/><path class="cls-4" d="M151.2,366.7a2,2,0,0,1,2.46.56,5.89,5.89,0,0,0-1.18-.52A5.49,5.49,0,0,0,151.2,366.7Z"/><path class="cls-4" d="M153.21,363.37s.55-.15,1.39-.47a10.64,10.64,0,0,0,1.44-.7c.27-.15.53-.32.79-.5s.51-.44.49-.72-.35-.44-.63-.37a1.58,1.58,0,0,0-.73.49,14.29,14.29,0,0,0-1.11,1.15c-.62.67-.95,1.13-1,1.11s.06-.13.21-.34a9.52,9.52,0,0,1,.65-.88,13.6,13.6,0,0,1,1.1-1.18,1.8,1.8,0,0,1,.82-.56.7.7,0,0,1,.86.47s0,.06,0,.09a1.26,1.26,0,0,1-.6.88,9.64,9.64,0,0,1-2.29,1.16,8.22,8.22,0,0,1-1,.29A1,1,0,0,1,153.21,363.37Z"/><path class="cls-4" d="M153.83,363.22s-.08-.51-.22-1.33a5.47,5.47,0,0,0-.4-1.38,2.61,2.61,0,0,0-.45-.7c-.17-.2-.45-.37-.67-.24a.7.7,0,0,0-.22.72,3.19,3.19,0,0,0,.23.8,4.09,4.09,0,0,0,.78,1.19c.55.62,1,.88,1,.94a1,1,0,0,1-.31-.18,5.92,5.92,0,0,1-.76-.65,4.76,4.76,0,0,1-.87-1.22,3.79,3.79,0,0,1-.26-.87.89.89,0,0,1,.33-.94.76.76,0,0,1,.93.3,3.49,3.49,0,0,1,.48.76,5.09,5.09,0,0,1,.36,1.43,6.61,6.61,0,0,1,.08,1A1,1,0,0,1,153.83,363.22Z"/><path class="cls-5" d="M221.79,360.54l.05-9.7-18.16-.22-.22,14.18,1.12.09c5,.34,25.48,1.38,28.85.4C237.18,364.19,221.79,360.54,221.79,360.54Z"/><path class="cls-4" d="M203.2,364.38a.81.81,0,0,0,.31,0l.87.07,3.31.18c2.78.14,6.63.27,10.89.33s8.11,0,10.9,0l3.31-.09H234a.86.86,0,0,0-.32,0H218.59c-4.27,0-8.1-.18-10.9-.28l-3.3-.11h-.87A1.7,1.7,0,0,0,203.2,364.38Z"/><path class="cls-4" d="M227.67,365.2a6.45,6.45,0,0,1,.63-1.57,7.53,7.53,0,0,1,1.14-1.25,2.46,2.46,0,0,0-1.33,1.13A2.37,2.37,0,0,0,227.67,365.2Z"/><path class="cls-4" d="M222.34,362.44a2.45,2.45,0,0,0,.58-.69c.27-.41.45-.78.39-.82s-.3.28-.57.7S222.29,362.38,222.34,362.44Z"/><path class="cls-4" d="M220.88,361.62a2,2,0,0,0,.65-.42c.32-.27.53-.55.5-.59s-.34.14-.65.42S220.84,361.56,220.88,361.62Z"/><path class="cls-4" d="M220,359.88a2,2,0,0,0,.94.14,2.38,2.38,0,0,0,1-.08,2,2,0,0,0-1-.14A2.19,2.19,0,0,0,220,359.88Z"/><path class="cls-4" d="M219.66,358.68a1.89,1.89,0,0,0,1.06.32,2,2,0,0,0,1.1-.13,4.93,4.93,0,0,0-1.08-.09A5.64,5.64,0,0,0,219.66,358.68Z"/><path class="cls-4" d="M223,360.83a3.34,3.34,0,0,0,1.18,0,6.65,6.65,0,0,0,1.24-.25,4.51,4.51,0,0,0,.72-.29.65.65,0,0,0,.29-.36.49.49,0,0,0-.17-.47,2.15,2.15,0,0,0-2.63.6,2.06,2.06,0,0,0-.38.77c-.06.2-.06.31,0,.31a3,3,0,0,1,.54-1,2.09,2.09,0,0,1,1-.64,1.82,1.82,0,0,1,1.39.11c.17.14.1.36-.11.48a2.87,2.87,0,0,1-.65.27,8.55,8.55,0,0,1-1.21.3C223.41,360.8,223,360.79,223,360.83Z"/><path class="cls-4" d="M223.28,360.9a1.22,1.22,0,0,0,.14-.81,1.94,1.94,0,0,0-.31-.88,1.12,1.12,0,0,0-1-.6.46.46,0,0,0-.37.53,1.17,1.17,0,0,0,.19.52,2.94,2.94,0,0,0,.55.71,1.64,1.64,0,0,0,.66.49s-.23-.21-.55-.59a4.82,4.82,0,0,1-.48-.7c-.16-.26-.26-.7,0-.75s.59.28.76.5a2,2,0,0,1,.32.77A5.51,5.51,0,0,1,223.28,360.9Z"/><path class="cls-4" d="M203.63,359.42s.53,0,1.35.07a5.69,5.69,0,0,1,4.7,3.85c.27.78.29,1.31.33,1.3a1.15,1.15,0,0,0,0-.37,4.13,4.13,0,0,0-.18-1,5.57,5.57,0,0,0-5.84-4Z"/><path class="cls-4" d="M205.61,351.93a31.08,31.08,0,0,0-.2,3.73,29,29,0,0,0,0,3.73,30.86,30.86,0,0,0,.2-3.73A33.15,33.15,0,0,0,205.61,351.93Z"/><path class="cls-4" d="M212.34,363a9.7,9.7,0,0,0,2.63.3,10.56,10.56,0,0,0,2.63-.18c0-.07-1.2,0-2.63,0S212.35,362.94,212.34,363Z"/><path class="cls-4" d="M208.79,363s.09.25.21.52.18.52.24.52.1-.29,0-.6S208.82,362.9,208.79,363Z"/><path class="cls-4" d="M207.47,361.27a1.28,1.28,0,0,0,.25.42c.18.19.38.31.42.28s-.07-.24-.25-.43S207.51,361.22,207.47,361.27Z"/><path class="cls-4" d="M205.56,360.48c0,.06.25.06.51.16s.46.24.51.2-.1-.29-.43-.41S205.54,360.42,205.56,360.48Z"/><path class="cls-4" d="M204.19,360.1c0,.06.09.15.24.21s.29.06.3,0-.07-.15-.22-.21S204.22,360,204.19,360.1Z"/><polygon class="cls-6" points="230.96 177.24 223.43 358.16 201.28 357.78 203.49 199.74 168.01 358.67 148.73 358.67 179.43 175.21 230.96 177.24"/><path class="cls-6" d="M210,181.47a18.87,18.87,0,0,1-.33,3c-.26,1.85-.66,4.38-1.13,7.19a29.75,29.75,0,0,1-.81,3.95,5.55,5.55,0,0,1-1.85,2.78,4.29,4.29,0,0,1-2,.88,1.89,1.89,0,0,1-.82,0,5.62,5.62,0,0,0,2.63-1.18,5.44,5.44,0,0,0,1.62-2.63,34,34,0,0,0,.77-3.9c.46-2.8.91-5.33,1.27-7.15A18.37,18.37,0,0,1,210,181.47Z"/><path class="cls-6" d="M204.15,182.33a1.72,1.72,0,0,0,0,.83.89.89,0,0,0,.47.6.78.78,0,0,0,.88-.17.81.81,0,0,0,.28-.81.94.94,0,0,0-.55-.54c-.46-.2-.78,0-.81-.07s.25-.42.92-.27a1.24,1.24,0,0,1,.87.72,1.27,1.27,0,0,1-.83,1.61,1.33,1.33,0,0,1-.92-.06,1.31,1.31,0,0,1-.61-.95C203.68,182.54,204.15,182.27,204.15,182.33Z"/><path class="cls-4" d="M188.93,184.93a4,4,0,0,1-.37-2.62,3.86,3.86,0,0,1,.88-2.46c.13.06-.28,1.13-.42,2.51S189.08,184.9,188.93,184.93Z"/><path class="cls-4" d="M192.34,184.71a6.15,6.15,0,0,1,.36-5.26,23.22,23.22,0,0,1-.28,2.63A25.67,25.67,0,0,1,192.34,184.71Z"/><path class="cls-6" d="M221.56,185.46a17.8,17.8,0,0,1,.17-2.73,15.67,15.67,0,0,1,.12-2.74,5.32,5.32,0,0,1,.38,2.76A5.13,5.13,0,0,1,221.56,185.46Z"/><path class="cls-6" d="M225.26,185.25c-.13-.05.3-1.24.4-2.78s-.16-2.75,0-2.8a5.85,5.85,0,0,1-.4,5.58Z"/><path class="cls-10" d="M194.64,99.11l17.46-1.39c.11-2,0-9.93,0-9.93s7.27-1.13,7.35-8.39-1.17-23.94-1.17-23.94h0a25.21,25.21,0,0,0-25.39,3.19l-1.08.82Z"/><path class="cls-12" d="M212.07,87.69A16.85,16.85,0,0,1,202.61,85s2.23,5.25,9.48,4.57Z"/><path class="cls-10" d="M192.7,67c-.13,0-5-1.48-4.84,3.5S193,74.28,193,74.14,192.7,67,192.7,67Z"/><path class="cls-12" d="M191.41,72.3l-.23.13a.91.91,0,0,1-.65,0,2.16,2.16,0,0,1-1.05-1.89,2.81,2.81,0,0,1,.2-1.25,1,1,0,0,1,.63-.68.44.44,0,0,1,.52.22c.07.14,0,.24.07.24s.11-.08,0-.28a.47.47,0,0,0-.2-.31.68.68,0,0,0-.48-.12,1.21,1.21,0,0,0-.87.8,2.94,2.94,0,0,0-.26,1.4,2.22,2.22,0,0,0,1.33,2.1,1,1,0,0,0,.79-.15C191.4,72.41,191.43,72.3,191.41,72.3Z"/><path class="cls-4" d="M216.65,66.84a1,1,0,0,1-1,1,1,1,0,0,1-1.06-.9v0a1,1,0,0,1,1-1.06,1,1,0,0,1,1.08.92Z"/><path class="cls-4" d="M216.87,65.68c-.12.13-.88-.45-2-.45s-1.93.56-2.05.43.07-.31.43-.57a2.92,2.92,0,0,1,1.64-.51,2.78,2.78,0,0,1,1.62.53C216.82,65.37,216.94,65.63,216.87,65.68Z"/><path class="cls-4" d="M205.72,67.1a1,1,0,0,1-1,1.05,1,1,0,0,1-1.07-.91v0a1,1,0,0,1,1-1,1,1,0,0,1,1.06.9Z"/><path class="cls-4" d="M205.9,65.88c-.13.14-.88-.45-2-.44s-1.94.56-2.06.42.07-.3.43-.56a2.92,2.92,0,0,1,1.65-.51,2.71,2.71,0,0,1,1.62.53C205.85,65.58,206,65.83,205.9,65.88Z"/><path class="cls-4" d="M210,74.16a7.47,7.47,0,0,1,1.82-.32c.28,0,.55-.09.6-.28a1.5,1.5,0,0,0-.19-.88c-.27-.69-.55-1.41-.88-2.17a36.62,36.62,0,0,1-1.89-5.67,36.93,36.93,0,0,1,2.34,5.5c.29.77.55,1.49.81,2.19a1.66,1.66,0,0,1,.15,1.11.7.7,0,0,1-.47.42,1.59,1.59,0,0,1-.48.07A6.86,6.86,0,0,1,210,74.16Z"/><path class="cls-4" d="M206.67,74.93c.17,0,.18,1.2,1.22,2.07s2.33.72,2.33.87-.28.24-.83.25a3,3,0,0,1-1.95-.68,2.64,2.64,0,0,1-.95-1.75C206.45,75.26,206.58,74.92,206.67,74.93Z"/><path class="cls-4" d="M206.19,61.51c-.11.3-1.23.16-2.53.31s-2.37.52-2.55.25.11-.42.53-.71a4.16,4.16,0,0,1,1.89-.66,4.3,4.3,0,0,1,2,.23C206,61.12,206.24,61.36,206.19,61.51Z"/><path class="cls-4" d="M216.47,62.45c-.2.25-1,0-1.89,0s-1.71.17-1.9-.1,0-.38.39-.62a2.56,2.56,0,0,1,1.58-.47,2.63,2.63,0,0,1,1.51.5C216.41,62.06,216.55,62.32,216.47,62.45Z"/><path class="cls-4" d="M191.72,64.15a4.56,4.56,0,0,1-3.24-5.46A6.53,6.53,0,0,1,193.9,47.8a7.1,7.1,0,0,1,12.59-4.38,5.84,5.84,0,0,1,9.92,5.46,3.17,3.17,0,0,1,4.24,4.7,2.32,2.32,0,0,1,1.82,2.73,2.29,2.29,0,0,1-1.71,1.79,3.08,3.08,0,0,1-5.88,1c-.38,1.75-2.58,2.62-4.25,2a6,6,0,0,1-3.4-3.85A3.08,3.08,0,0,1,203,58.29a3.14,3.14,0,0,1-1-1,3,3,0,0,1-2,3.76,2.49,2.49,0,0,1-.37.09,4.28,4.28,0,0,1-8.55-.53"/><path class="cls-4" d="M190.42,60.78c.23,2,.88,5.94,1.17,7.88a2.39,2.39,0,0,0,.65,1.53,1.61,1.61,0,0,0,2.19-.47,4.78,4.78,0,0,0,.71-2.35l.69-6"/><path class="cls-7" d="M208.7,66.77a4.08,4.08,0,0,0-.24-1.16,4.73,4.73,0,0,0-1.75-2.56,4.64,4.64,0,1,0,0,7.43,4.75,4.75,0,0,0,1.75-2.55c.21-.73.2-1.17.24-1.16s0,.11,0,.31a3.19,3.19,0,0,1-.1.87,4.82,4.82,0,0,1-1.75,2.78,5,5,0,0,1-7-.86l-.1-.12a5.06,5.06,0,0,1,0-6A4.91,4.91,0,0,1,202.1,62a5,5,0,0,1,4.75.76,4.79,4.79,0,0,1,1.75,2.78,3.19,3.19,0,0,1,.1.87C208.73,66.66,208.72,66.77,208.7,66.77Z"/><path class="cls-7" d="M221.2,66.77a4.24,4.24,0,0,0-.23-1.16,4.79,4.79,0,0,0-1.75-2.56,4.64,4.64,0,1,0,0,7.43A4.8,4.8,0,0,0,221,67.93c.2-.73.19-1.17.23-1.16s0,.11,0,.31a3.18,3.18,0,0,1-.09.87,4.82,4.82,0,0,1-1.75,2.78,5,5,0,0,1-7-.86l-.09-.12a5,5,0,0,1,0-6A4.93,4.93,0,0,1,214.6,62a5,5,0,0,1,4.76.76,4.79,4.79,0,0,1,1.75,2.78,3.18,3.18,0,0,1,.09.87C221.23,66.66,221.22,66.77,221.2,66.77Z"/><path class="cls-7" d="M211.5,66.25c0,.14-.64.23-1.42.23s-1.41-.09-1.41-.23.63-.22,1.41-.22S211.5,66.13,211.5,66.25Z"/><path class="cls-7" d="M199.54,66a33.63,33.63,0,0,1-7.75.82,16.31,16.31,0,0,1,3.86-.64A16.87,16.87,0,0,1,199.54,66Z"/><path class="cls-7" d="M202.06,46.84a.84.84,0,0,1,.37.14,1.74,1.74,0,0,1,.69,1,2.15,2.15,0,0,1-.21,1.83,2.23,2.23,0,0,1-2.26.88,2.64,2.64,0,0,1-2.18-2,3.68,3.68,0,0,1,.75-3.31c1.61-1.93,4.74-2.45,7.3-1.32a5.71,5.71,0,0,1,2.86,2.56,3.35,3.35,0,0,1-.23,3.5l-.26-.32a4.33,4.33,0,0,1,4.85.87,3.65,3.65,0,0,1,.76,3.8,3.36,3.36,0,0,1-1.83,1.8,2.69,2.69,0,0,1-.68.16.89.89,0,0,1-.23,0,6.83,6.83,0,0,0,.87-.29,3.25,3.25,0,0,0,1.65-1.75,3.36,3.36,0,0,0-.79-3.5,4,4,0,0,0-4.38-.76l-.77.34.53-.66A3,3,0,0,0,209,46.7a5.32,5.32,0,0,0-2.62-2.33,6,6,0,0,0-6.8,1.16,3.31,3.31,0,0,0-.71,2.94,2.35,2.35,0,0,0,1.88,1.75,2,2,0,0,0,2-.7,2,2,0,0,0,.26-1.63,1.75,1.75,0,0,0-.58-.88C202.19,46.9,202.05,46.86,202.06,46.84Z"/><path class="cls-5" d="M232.69,103.63s6.42,6.67,6.55,24.6c.09,12.94,1.26,28.6,1.26,28.6l-8.87-.72,1.06-52.48"/><path class="cls-5" d="M171.44,108.66c1.54-5.19,7.09-10.81,14.79-12.26,2.46-.47,4.84-1.36,7.72-1.48h0a30.94,30.94,0,0,0,18.61,0c.76.1,1.81.19,3.13.35,8.09,1,11.19,2.63,17,8.37l-.64,32.74s-.28,37.06-.42,43.07l-53,.2,3-34.86"/><path class="cls-5" d="M181.63,144.78l-10.19,13.27,3.88,3.94-10.76,14.07s-19.13-11.49-18.6-14.68,26.13-54.44,26.13-54.44,10.33,1.08,9.54,16.15S181.63,144.78,181.63,144.78Z"/><path class="cls-6" d="M182.2,150A5,5,0,0,1,182,149c-.07-.7-.19-1.71-.31-3-.25-2.5-.54-6-.77-9.78s-.29-7.29-.25-9.81c0-1.26,0-2.27.09-3a5,5,0,0,1,.11-1.09,5.76,5.76,0,0,1,.07,1.1c0,.78,0,1.75.05,3,.05,2.51.17,6,.38,9.78s.48,7.18.64,9.78q.1,1.78.18,3A6.73,6.73,0,0,1,182.2,150Z"/><path class="cls-6" d="M160.37,162.39a4.8,4.8,0,0,1,1.19-1.42,13.7,13.7,0,0,1,3.75-2.49,9.62,9.62,0,0,1,4.38-1,2.39,2.39,0,0,1,1.75.7,5.54,5.54,0,0,0-1.75-.38,10.89,10.89,0,0,0-4.19,1.09A22.14,22.14,0,0,0,160.37,162.39Z"/><path class="cls-6" d="M162.55,153.65a10.49,10.49,0,0,1,5.25.79,12.58,12.58,0,0,1,1.9.87,5.51,5.51,0,0,1,1.42,1,1.31,1.31,0,0,1,.32,1.17c-.09.29-.25.37-.26.35a3,3,0,0,0,.08-.39,1.14,1.14,0,0,0-.37-.87,6.28,6.28,0,0,0-1.39-.88,16,16,0,0,0-1.85-.81A32.1,32.1,0,0,0,162.55,153.65Z"/><path class="cls-6" d="M231.77,163.9c-.13,0-.26-10.62-.3-23.71s0-23.71.16-23.71.26,10.62.3,23.71S231.89,163.9,231.77,163.9Z"/><path class="cls-6" d="M181.19,136.76a1.64,1.64,0,0,1-.43.37,2.22,2.22,0,0,1-.59.31,1.64,1.64,0,0,1-.44.09.63.63,0,0,1-.51-.23,19,19,0,0,1-2.57-4.31,35.73,35.73,0,0,1-1.75-4.69,8.7,8.7,0,0,1-.5-2,8.67,8.67,0,0,1,.8,1.91c.45,1.19,1,2.84,1.86,4.6a24.66,24.66,0,0,0,2.4,4.28c.14.22.4.17.64.12a4.07,4.07,0,0,0,.58-.22A2.18,2.18,0,0,1,181.19,136.76Z"/><path class="cls-6" d="M188.75,174.94a.37.37,0,0,1,0-.21,2.69,2.69,0,0,0-.05-.59c0-.57-.08-1.34-.14-2.31-.1-2-.23-4.91-.36-8.5-.26-7.18-.5-17.09-.54-28s.22-20.88.62-28c.23-3.58.42-6.48.64-8.48.1-1,.18-1.75.24-2.3a4,4,0,0,1,.07-.59c0-.16,0-.2,0-.2a.67.67,0,0,1,0,.2v.6c0,.57-.08,1.33-.15,2.3-.16,2-.29,4.91-.49,8.49-.32,7.17-.52,17.08-.48,28s.22,20.86.4,28c.09,3.56.16,6.45.22,8.49,0,1,0,1.76,0,2.32v.6Z"/><path class="cls-6" d="M205,96.28a.74.74,0,0,1,0,.21,2.63,2.63,0,0,0,.06.63c0,.58.11,1.4.19,2.41.15,2.11.34,5.15.54,8.92.39,7.53.77,18,.8,29.45s-.3,21.89-.72,29.45c-.21,3.77-.41,6.81-.6,8.92-.08,1-.15,1.83-.2,2.41a4.45,4.45,0,0,1-.07.63.74.74,0,0,1,0,.21.81.81,0,0,1,0-.22v-.63c0-.58.07-1.4.12-2.42.13-2.1.28-5.15.45-8.91.33-7.53.62-17.94.6-29.44s-.36-21.89-.68-29.44c-.16-3.73-.3-6.76-.39-8.91,0-1-.08-1.84-.11-2.42V96.5A1.55,1.55,0,0,1,205,96.28Z"/><path class="cls-6" d="M221.34,179.92a.41.41,0,0,1,0-.22v-.62c0-.58-.07-1.39-.13-2.39-.1-2.09-.2-5.1-.27-8.82-.14-7.44-.08-17.74.48-29.09s1.53-21.6,2.4-29c.44-3.7.83-6.68,1.14-8.76.15-1,.27-1.75.36-2.37l.1-.61a.65.65,0,0,1,.06-.21v.21a2.51,2.51,0,0,1-.06.62c-.07.58-.16,1.37-.28,2.38-.25,2.06-.59,5.06-1,8.75-.79,7.4-1.7,17.65-2.26,29s-.67,21.62-.62,29.06c0,3.72.08,6.74.13,8.81v3A1.05,1.05,0,0,1,221.34,179.92Z"/><path class="cls-6" d="M153.37,167.76a2.9,2.9,0,0,1-.41-.58,6.73,6.73,0,0,1-.75-1.92,13.17,13.17,0,0,1,1-7.42c.55-1.5,1.3-3.08,2.07-4.77l2.45-5.43c1.7-3.84,3.51-8.08,5.36-12.55,3.69-9,6.72-17.2,8.84-23.18l2.47-7.1.67-1.93a4.77,4.77,0,0,1,.26-.66,3.17,3.17,0,0,1-.17.69c-.15.49-.34,1.14-.6,2-.52,1.69-1.31,4.14-2.33,7.15-2,6-5,14.27-8.75,23.24-1.84,4.49-3.67,8.75-5.39,12.55-.88,1.92-1.7,3.73-2.5,5.42s-1.55,3.25-2.12,4.73a13.44,13.44,0,0,0-1.13,7.26A8.26,8.26,0,0,0,153.37,167.76Z"/><path class="cls-6" d="M166.31,154.94c-.11-.06,2.18-4.89,5.11-10.78s5.4-10.64,5.52-10.58-2.17,4.88-5.11,10.78S166.42,155,166.31,154.94Z"/><path class="cls-6" d="M169,168.27a10.58,10.58,0,0,1-3.51-3.5,10.75,10.75,0,0,1-1.92-4.61,41.45,41.45,0,0,0,2.3,4.38A41.19,41.19,0,0,0,169,168.27Z"/><path class="cls-10" d="M190.88,176.83s8.13,10.63,8.62,12.41c.31,1.1-.42,1.58-1.37.95s-6.58-6.51-6.58-6.51-1.22-.55-.67.3,4.64,7.88,5,9c.79,2.56-1.12,3.56-2.13,2.28a14.14,14.14,0,0,1-.88-1.16,3.28,3.28,0,0,1-.22,1.75,1.21,1.21,0,0,1-1.7.15l-.05,0c-.51-.74-3-4.69-3.11-5a7.77,7.77,0,0,0-.61-1,33.68,33.68,0,0,1,.55,4.47c-.09.74-1.38.5-2-.65S183,188,183,188s-6.53-5.89-7.17-7.25a24.35,24.35,0,0,1-1.05-2.85l-8.2-4.38,6.78-8.9s14.88,9.28,17.63,12.35"/><path class="cls-12" d="M188.74,185.71a28,28,0,0,1,4.3,8.34,39.08,39.08,0,0,1-2.2-4.14A41.12,41.12,0,0,1,188.74,185.71Z"/><path class="cls-12" d="M185.11,185.32a5.41,5.41,0,0,1,1.66,2.42,5.64,5.64,0,0,1,.59,2.88c-.14,0-.4-1.25-1-2.7S185,185.4,185.11,185.32Z"/><path class="cls-10" d="M253,161.33s.29,3.2-.33,4.07-4.73.88-6.58.88H231.8l-.06-5.11Z"/><path class="cls-2" d="M265.49,129.91c-4,8.8-15.08,32-15.08,32H190.18a2.8,2.8,0,0,1,2.81-2.8h11l12.86-31.09a2.35,2.35,0,0,1,2.18-1.45h44.26a2.35,2.35,0,0,1,2.36,2.35A2.43,2.43,0,0,1,265.49,129.91Z"/><path class="cls-15" d="M238.84,144.49a2.64,2.64,0,0,0-2.1-.87,2.61,2.61,0,0,0-2.41,2.25,2.29,2.29,0,0,0,2,2.34,2.67,2.67,0,0,0,2.68-1.68A2.17,2.17,0,0,0,238.84,144.49Z"/><path class="cls-10" d="M250,163.39a30.71,30.71,0,0,0-.28-8.29,2.72,2.72,0,0,0-.38-1,1.21,1.21,0,0,0-.87-.56,1.25,1.25,0,0,0-1.09.68,3.38,3.38,0,0,0-.34,1.29c-.25,1.92-.46,6.26-.46,8.19"/><path class="cls-10" d="M246.58,163a20.06,20.06,0,0,0,0-6.65,2.9,2.9,0,0,0-.39-1,1.14,1.14,0,0,0-.87-.55,1.23,1.23,0,0,0-1.09.67,3.39,3.39,0,0,0-.35,1.29,46.8,46.8,0,0,0-.37,5.8"/><path class="cls-10" d="M243.45,165a19.54,19.54,0,0,0,0-6.65,2.84,2.84,0,0,0-.38-1,1.2,1.2,0,0,0-.87-.55,1.23,1.23,0,0,0-1.09.67,3.69,3.69,0,0,0-.35,1.3,46.8,46.8,0,0,0-.36,5.8"/><path class="cls-10" d="M252.85,164.31a18,18,0,0,0-.14-5.13,2.83,2.83,0,0,0-.38-1,1.09,1.09,0,0,0-2,.11,3.49,3.49,0,0,0-.35,1.3,45.65,45.65,0,0,0-.34,5.84"/><path class="cls-12" d="M242.8,164.73c0-.06.41,0,.72-.49a4.07,4.07,0,0,0,.17-2.16,11.85,11.85,0,0,1,.07-3.31,12.65,12.65,0,0,1,.38,3.29,9.54,9.54,0,0,1,0,1.31,1.72,1.72,0,0,1-.39,1.08,1.06,1.06,0,0,1-.69.36C242.89,164.81,242.8,164.75,242.8,164.73Z"/><path class="cls-12" d="M246.46,165.1a1.13,1.13,0,0,0,.49-.87,5.8,5.8,0,0,0,0-1.18c0-.5-.08-1-.11-1.51a16.87,16.87,0,0,1,0-3.89,17.33,17.33,0,0,1,.46,3.86c0,.52.05,1,.07,1.51a4.92,4.92,0,0,1-.05,1.27,1.14,1.14,0,0,1-.48.76C246.59,165.16,246.47,165.12,246.46,165.1Z"/><path class="cls-12" d="M250.63,164.26a12.72,12.72,0,0,1-.5-5.78A36.18,36.18,0,0,1,250.63,164.26Z"/></g></svg>